<svg width="306" height="786" viewBox="0 0 306 786" fill="none" xmlns="http://www.w3.org/2000/svg">
<path fill-rule="evenodd" clip-rule="evenodd" d="M-1.74393e-05 387.035C6.09026 383.392 12.7529 379.685 20.04 375.968C79.8168 345.464 73.4518 283.079 28.8653 255.811C19.8798 250.314 10.0929 247.16 -2.36369e-05 245.252L-2.38233e-05 240.987C12.9902 242.758 25.6828 246.094 37.1203 253.086C76.4011 277.114 92.0764 333.059 43.4437 372.413L46.4347 371.13C117.788 340.608 86.9936 257.765 77.5563 229.518C68.1233 201.283 52.2398 180.119 58.4384 142.976C64.6473 105.822 101.068 79.0531 139.8 83.1764C178.529 87.2977 204.901 120.748 198.698 157.9C194.048 185.764 166.727 205.846 137.681 202.759C108.63 199.662 88.8564 174.572 93.5064 146.71C96.6077 128.127 114.82 114.743 134.186 116.804C153.552 118.865 167.568 135.889 164.471 154.472C162.918 163.753 152.981 170.145 143.296 169.121C133.611 168.095 127.017 159.725 128.566 150.444C127.954 160.04 134.35 168.873 144.749 168.484C173.173 167.431 169.473 123.227 137.069 119.96C118.159 118.051 101.838 132.053 100.598 151.241C98.7495 180.015 124.118 202.093 146.058 200.734C218.057 196.28 215.549 92.4928 140.686 84.931C102.877 81.1116 68.8434 109.402 66.3749 147.782C63.9105 186.151 81.2655 207.781 93.0547 236.795C104.844 265.812 133.676 341.027 68.8351 379.321C44.9902 393.398 19.7216 407.298 -1.57946e-05 424.661L-1.74393e-05 387.035ZM-1.50334e-05 442.076C21.5262 421.605 51.9859 410.005 83.8027 412.965C138.74 418.083 176.899 464.685 169.05 517.047C163.16 556.326 124.994 585.052 83.7944 581.21C42.5945 577.376 13.981 542.424 19.8652 503.146C23.7887 476.969 49.2384 457.814 76.6967 460.372C104.165 462.936 124.434 486.638 120.505 512.818C118.544 525.908 104.636 535.083 90.8984 533.803C77.1713 532.523 67.6237 520.873 69.5907 507.783C68.9538 521.289 78.2307 533.605 92.9465 532.887C133.154 530.91 126.807 468.789 80.8533 464.753C54.0507 462.399 31.2881 482.385 30.0247 509.392C28.1139 549.909 64.5848 580.517 95.6066 578.225C197.412 570.696 191.263 424.761 85.1057 415.43C52.5687 412.57 20.6437 425.814 0.00206669 448.733L0.0020664 442.076L-1.50334e-05 442.076ZM-8.10035e-06 600.686C26.2573 665.714 58.3468 729.202 0 786L-9.98077e-08 783.717C11.8038 768.445 19.4323 744.194 19.4323 716.886C19.4323 689.578 11.8038 665.321 -5.94252e-06 650.051L-8.10035e-06 600.686ZM-1.80919e-05 372.105C4.13788 365.762 7.75541 358.43 10.7964 349.39C17.5215 329.387 12.6114 308.458 -2.15243e-05 293.582L-2.16964e-05 289.644C15.6503 304.525 23.5035 326.709 18.633 348.147C14.9759 364.272 8.08844 375.179 -1.75469e-05 384.574L-1.80919e-05 372.105Z" fill="#DFDFDF"/>
<path fill-rule="evenodd" clip-rule="evenodd" d="M216.48 575.731C216.48 575.731 208.543 560.4 190.418 557.173C172.285 553.947 149.955 560.735 139.504 577.199C129.06 593.657 124.543 598.24 113.001 601.643C101.464 605.055 127.53 597.622 144.094 604.892C177.696 619.631 211.811 594.516 216.48 575.731ZM213.568 576.649C213.568 576.649 208.766 575.742 201.712 575.507C193.395 568.942 188.659 564.146 188.84 564.365C190.223 566.042 193.884 570.089 199.645 575.457C197.156 575.425 194.444 575.482 191.598 575.694C181.537 569.285 175.725 564.531 175.956 564.762C177.742 566.502 182.288 570.574 189.307 575.892C187.127 576.112 184.886 576.427 182.629 576.86C169.895 570.692 162.342 565.807 162.648 566.044C164.941 567.832 170.888 572.066 179.984 577.417C178.071 577.865 176.156 578.4 174.264 579.043C173.742 579.22 173.228 579.397 172.726 579.57C160.414 574.693 153.023 570.657 153.319 570.861C155.598 572.378 161.511 575.958 170.476 580.363C168.309 581.139 166.242 581.92 164.282 582.69C152.882 579.942 145.875 577.299 146.161 577.428C148.307 578.466 153.841 580.837 162.096 583.56C159.132 584.759 156.42 585.928 153.993 587.034C145.291 586.103 139.858 584.825 140.085 584.902C141.763 585.458 145.994 586.644 152.226 587.847C146.046 590.728 141.933 593.059 140.251 594.108C140.037 594.242 144.66 591.904 152.559 588.903C148.95 593.63 146.727 597.102 145.875 598.567C145.761 598.765 148.844 594.404 154.505 588.176C156.876 587.304 159.496 586.39 162.333 585.481C157.86 593.216 155.242 598.815 154.293 601.104C154.168 601.408 157.708 594.652 164.552 584.775C166.923 584.043 169.421 583.318 172.033 582.621C167.139 591.546 164.313 597.999 163.32 600.584C163.191 600.923 166.977 593.224 174.374 582.013C176.558 581.457 178.825 580.925 181.152 580.427C176.558 590.025 173.979 596.929 173.086 599.699C172.972 600.061 176.421 591.956 183.379 579.963C185.976 579.441 188.655 578.962 191.392 578.543C187.65 587.856 185.664 594.51 185.013 597.127C184.927 597.464 187.612 589.735 193.303 578.267C195.616 577.938 197.972 577.657 200.351 577.432C197.52 584.619 195.99 589.752 195.478 591.827C195.412 592.098 197.455 586.205 201.795 577.303C205.126 577.024 208.512 576.847 211.936 576.805C211.94 576.803 214.034 576.666 213.568 576.649ZM218.807 575.657C218.807 575.657 232.126 564.733 250.043 568.979C267.964 573.234 285.81 588.353 288.93 607.629C292.042 626.904 294.398 632.908 303.657 640.629C312.913 648.344 291.896 631.156 273.823 631.233C237.163 631.404 215.708 594.766 218.815 575.657L218.807 575.657ZM221.121 577.655C221.121 577.655 225.896 578.733 232.459 581.322C242.677 578.604 248.917 576.085 248.661 576.212C246.727 577.205 241.782 579.461 234.368 582.096C236.672 583.064 239.14 584.197 241.674 585.523C253.434 583.637 260.635 581.587 260.336 581.703C258.013 582.594 252.237 584.521 243.692 586.609C245.612 587.683 247.549 588.861 249.454 590.156C263.57 589.556 272.429 588.076 272.058 588.176C269.246 588.905 262.117 590.424 251.662 591.723C253.24 592.895 254.793 594.15 256.275 595.491C256.683 595.863 257.089 596.225 257.486 596.59C270.712 597.004 279.079 596.238 278.729 596.306C276.04 596.798 269.2 597.726 259.241 598.215C260.918 599.785 262.513 601.325 264.009 602.807C275.561 604.82 283.042 605.18 282.724 605.188C280.344 605.286 274.331 605.269 265.681 604.48C267.929 606.757 269.956 608.91 271.752 610.893C280.107 613.499 285.598 614.488 285.361 614.471C283.604 614.311 279.254 613.718 273.057 612.34C277.599 617.45 280.463 621.225 281.589 622.851C281.731 623.059 278.407 619.073 272.337 613.181C273.79 618.957 274.469 623.03 274.675 624.71C274.7 624.939 273.586 619.712 270.832 611.738C268.999 609.996 266.953 608.112 264.711 606.147C265.77 615.033 265.974 621.221 265.945 623.696C265.945 624.025 265.346 616.415 262.944 604.618C261.058 603.009 259.049 601.344 256.92 599.662C257.909 609.811 257.965 616.863 257.857 619.627C257.842 619.983 257.401 611.409 255.015 598.176C253.225 596.796 251.348 595.401 249.406 594.017C249.851 604.661 249.5 612.025 249.24 614.929C249.196 615.304 249.221 606.489 247.545 592.706C245.36 591.19 243.095 589.683 240.743 588.216C240.516 598.257 239.727 605.159 239.294 607.821C239.242 608.16 239.813 600.003 239.099 587.196C237.105 585.98 235.052 584.788 232.952 583.633C232.723 591.361 232.111 596.677 231.77 598.788C231.722 599.064 232.163 592.839 231.674 582.937C228.733 581.355 225.69 579.849 222.56 578.444C222.556 578.444 220.684 577.492 221.121 577.655ZM210.937 595.932C210.937 595.932 227.551 608.281 229.318 629.79C231.085 651.306 218.522 672.019 197.732 685.125C176.937 698.238 173.925 700.928 166.174 711.914C158.427 722.901 174.676 692.762 169.65 672.135C156.659 618.74 186.615 608.1 210.941 595.934L210.937 595.934L210.937 595.932ZM209.85 598.405C209.85 598.405 210.381 604.104 209.865 612.367C216.69 622.805 221.825 628.87 221.588 628.633C219.758 626.831 215.393 622.102 209.694 614.775C209.447 617.683 209.072 620.842 208.502 624.137C214.948 636.591 219.91 643.917 219.664 643.615C217.806 641.338 213.503 635.575 208.013 626.783C207.505 629.306 206.878 631.882 206.112 634.474C211.967 650.018 216.89 659.38 216.648 658.999C214.79 656.125 210.464 648.705 205.148 637.488C204.407 639.669 203.556 641.846 202.584 643.982C202.32 644.569 202.058 645.141 201.781 645.716C206.164 660.627 210.106 669.708 209.898 669.34C208.354 666.505 204.797 659.203 200.592 648.259C199.433 650.692 198.273 653.017 197.143 655.209C199.104 668.826 201.446 677.297 201.319 676.952C200.336 674.327 198.151 667.606 195.872 657.667C194.113 660.991 192.423 664.018 190.845 666.728C190.968 676.983 191.861 683.467 191.79 683.192C191.33 681.171 190.402 676.105 189.686 668.701C185.577 675.584 182.357 680.12 180.931 681.962C180.746 682.195 184.032 677.064 188.478 668.193C182.475 671.867 178.119 674.069 176.296 674.895C176.044 675.008 181.543 671.906 189.552 666.001C190.853 663.335 192.231 660.381 193.628 657.18C183.97 661.518 177.045 663.943 174.233 664.792C173.858 664.904 182.255 661.539 194.71 654.666C195.84 651.987 196.981 649.152 198.101 646.182C186.992 650.886 179.035 653.452 175.871 654.316C175.457 654.431 184.99 650.886 199.083 643.524C199.987 641.032 200.869 638.451 201.729 635.795C189.854 640.062 181.399 642.296 178.017 643.022C177.58 643.118 187.55 640.01 202.522 633.246C203.433 630.269 204.303 627.203 205.101 624.058C193.663 627.368 185.568 628.933 182.4 629.397C182.001 629.455 191.44 627.201 205.65 621.854C206.297 619.2 206.895 616.48 207.428 613.728C198.607 616.222 192.371 617.421 189.854 617.793C189.531 617.837 196.731 616.115 207.746 612.061C208.454 608.208 209.043 604.278 209.476 600.288C209.476 600.288 209.88 597.863 209.846 598.402L209.846 598.405L209.85 598.405Z" fill="#DFDFDF"/>
<path fill-rule="evenodd" clip-rule="evenodd" d="M181.745 470.779C158.755 441.177 125.515 418.213 84.7707 414.123C81.0991 413.756 77.3629 413.544 73.5622 413.49L73.5705 412.389C77.3983 412.443 81.1657 412.659 84.881 413.03C125.962 417.153 159.463 440.288 182.623 470.109C205.371 499.401 226.464 546.968 215.976 584.784C214.042 591.75 211.241 596.448 211.241 596.448C228.602 555.825 207.049 503.358 181.745 470.779Z" fill="#DFDFDF"/>
<path fill-rule="evenodd" clip-rule="evenodd" d="M15.1238 679.339C54.363 676.306 94.6659 659.062 124.139 622.351C126.799 619.044 129.37 615.568 131.849 611.93L130.537 619.117C105.656 655.638 53.7636 677.632 15.1197 680.621L14.6347 680.659L14.2746 679.402L15.1238 679.339Z" fill="#DFDFDF"/>
<path fill-rule="evenodd" clip-rule="evenodd" d="M110.458 339.697C110.458 339.697 121.483 359.152 143.888 361.716C166.288 364.276 189.544 350.297 205.773 326.642C222.008 302.984 225.186 299.573 237.648 290.904C250.112 282.236 216.521 300.243 195.426 293.945C140.83 277.657 126.118 311.943 110.458 339.697ZM113.184 338.5C113.184 338.5 119.116 339.249 127.861 338.852C138.03 346.977 143.802 353.053 143.584 352.77C141.902 350.622 137.448 345.464 130.412 338.71C133.499 338.5 136.867 338.144 140.401 337.569C152.727 345.306 159.848 351.207 159.559 350.916C157.384 348.722 151.83 343.62 143.238 337.066C145.946 336.543 148.733 335.89 151.541 335.067C167.195 342.207 176.454 348.106 176.087 347.82C173.28 345.602 165.988 340.423 154.828 334.035C157.209 333.234 159.592 332.301 161.957 331.233C162.608 330.938 163.239 330.644 163.876 330.353C179.033 335.765 188.11 340.533 187.75 340.286C184.952 338.444 177.698 334.158 166.683 329.038C169.377 327.76 171.956 326.482 174.403 325.237C188.482 327.83 197.112 330.728 196.76 330.574C194.115 329.379 187.315 326.7 177.13 323.821C180.835 321.884 184.217 320.008 187.246 318.256C198.009 318.645 204.726 319.831 204.441 319.746C202.374 319.167 197.154 317.968 189.459 316.963C197.172 312.394 202.322 308.794 204.43 307.189C204.697 306.989 198.917 310.656 189.069 315.556C193.638 308.727 196.469 303.759 197.547 301.669C197.691 301.388 193.78 307.653 186.636 316.745C183.676 318.179 180.408 319.69 176.88 321.228C182.579 310.198 185.947 302.272 187.169 299.057C187.329 298.63 182.804 308.219 174.106 322.412C171.161 323.653 168.045 324.902 164.787 326.121C171.042 313.425 174.68 304.314 175.965 300.682C176.131 300.212 171.286 311.112 161.886 327.187C159.155 328.163 156.339 329.123 153.446 330.045C159.336 316.459 162.675 306.76 163.844 302.886C163.99 302.383 159.555 313.801 150.673 330.9C147.439 331.879 144.108 332.811 140.711 333.656C145.546 320.547 148.144 311.245 149.004 307.607C149.114 307.141 145.626 317.977 138.334 334.235C135.462 334.909 132.535 335.536 129.576 336.083C133.243 325.978 135.237 318.807 135.922 315.916C136.007 315.55 133.353 323.807 127.79 336.412C123.652 337.134 119.454 337.713 115.207 338.123C115.21 338.121 112.61 338.519 113.184 338.5Z" fill="#DFDFDF"/>
<path fill-rule="evenodd" clip-rule="evenodd" d="M75.9745 236.676C75.9745 236.676 30.3098 160.004 37.3534 92.9549C47.9458 23.2747 69.2972 4.43478e-05 69.2972 4.43478e-05C39.8948 50.633 18.225 125.681 75.9745 236.676Z" fill="#DFDFDF"/>
<path fill-rule="evenodd" clip-rule="evenodd" d="M55.5451 176.314C37.2306 105.56 76.2263 24.8025 153.797 24.5569C76.6925 24.8025 36.2794 98.3791 53.726 168.744L55.5451 176.314Z" fill="#DFDFDF"/>
</svg>
