<svg width="306" height="786" viewBox="0 0 306 786" fill="none" xmlns="http://www.w3.org/2000/svg">
<path fill-rule="evenodd" clip-rule="evenodd" d="M305.917 387.035C299.826 383.392 293.164 379.685 285.877 375.968C226.1 345.464 232.465 283.079 277.051 255.81C286.037 250.313 295.824 247.16 305.917 245.251L305.917 240.987C292.927 242.758 280.234 246.094 268.796 253.086C229.516 277.114 213.84 333.059 262.473 372.413L259.482 371.13C188.128 340.608 218.923 257.765 228.36 229.518C237.793 201.283 253.677 180.119 247.478 142.976C241.269 105.822 204.849 79.053 166.117 83.1763C127.388 87.2975 101.016 120.748 107.219 157.9C111.869 185.764 139.19 205.846 168.236 202.759C197.287 199.662 217.06 174.572 212.41 146.71C209.309 128.127 191.096 114.743 171.731 116.804C152.365 118.865 138.349 135.889 141.446 154.472C142.999 163.753 152.935 170.145 162.62 169.121C172.305 168.095 178.899 159.725 177.351 150.444C177.963 160.039 171.566 168.873 161.168 168.484C132.743 167.431 136.444 123.227 168.848 119.959C187.758 118.051 204.078 132.052 205.319 151.241C207.167 180.015 181.799 202.093 159.858 200.734C87.8594 196.279 90.3675 92.4927 165.23 84.9309C203.04 81.1114 237.073 109.402 239.542 147.782C242.006 186.151 224.651 207.781 212.862 236.794C201.073 265.812 172.241 341.027 237.082 379.321C260.927 393.398 286.195 407.297 305.917 424.661L305.917 387.035ZM305.917 442.076C284.391 421.605 253.931 410.005 222.114 412.965C167.177 418.083 129.018 464.685 136.867 517.047C142.757 556.326 180.922 585.052 222.122 581.21C263.322 577.376 291.936 542.424 286.052 503.145C282.128 476.969 256.678 457.814 229.22 460.372C201.751 462.936 181.482 486.638 185.412 512.818C187.373 525.908 201.281 535.083 215.018 533.803C228.745 532.523 238.293 520.873 236.326 507.783C236.963 521.289 227.686 533.605 212.97 532.887C172.763 530.91 179.109 468.789 225.063 464.753C251.866 462.399 274.629 482.385 275.892 509.392C277.803 549.909 241.332 580.517 210.31 578.225C108.505 570.696 114.654 424.761 220.811 415.43C253.348 412.57 285.273 425.814 305.915 448.733L305.915 442.076L305.917 442.076ZM305.917 600.686C279.659 665.714 247.57 729.202 305.917 786L305.917 783.717C294.113 768.445 286.484 744.194 286.484 716.886C286.484 689.577 294.113 665.32 305.917 650.051L305.917 600.686ZM305.917 372.104C301.779 365.762 298.161 358.429 295.12 349.39C288.395 329.387 293.305 308.458 305.917 293.582L305.917 289.644C290.266 304.524 282.413 326.708 287.284 348.147C290.941 364.272 297.828 375.179 305.917 384.574L305.917 372.104Z" fill="#DFDFDF"/>
<path fill-rule="evenodd" clip-rule="evenodd" d="M89.4369 575.731C89.4369 575.731 97.3734 560.399 115.499 557.173C133.632 553.947 155.962 560.734 166.413 577.199C176.857 593.657 181.374 598.24 192.915 601.643C204.453 605.054 178.387 597.622 161.823 604.892C128.22 619.631 94.1056 594.516 89.4369 575.731ZM92.3489 576.649C92.3489 576.649 97.1507 575.742 104.205 575.506C112.522 568.942 117.257 564.146 117.076 564.364C115.694 566.042 112.033 570.088 106.272 575.456C108.761 575.425 111.473 575.481 114.318 575.694C124.38 569.285 130.191 564.531 129.96 564.762C128.175 566.502 123.629 570.573 116.61 575.891C118.789 576.112 121.031 576.426 123.287 576.859C136.022 570.692 143.575 565.807 143.269 566.044C140.975 567.832 135.029 572.066 125.933 577.417C127.846 577.865 129.761 578.4 131.653 579.043C132.175 579.22 132.689 579.397 133.191 579.569C145.502 574.693 152.894 570.657 152.598 570.861C150.319 572.378 144.406 575.958 135.441 580.362C137.608 581.139 139.674 581.919 141.635 582.689C153.035 579.942 160.041 577.299 159.756 577.428C157.61 578.466 152.076 580.837 143.821 583.559C146.785 584.758 149.497 585.928 151.924 587.033C160.626 586.103 166.059 584.825 165.832 584.902C164.154 585.458 159.923 586.644 153.691 587.847C159.871 590.728 163.984 593.059 165.665 594.108C165.88 594.241 161.257 591.904 153.358 588.903C156.967 593.629 159.19 597.101 160.041 598.567C160.156 598.764 157.073 594.404 151.412 588.176C149.041 587.304 146.42 586.39 143.583 585.481C148.056 593.215 150.675 598.814 151.624 601.104C151.749 601.408 148.208 594.651 141.365 584.775C138.994 584.042 136.496 583.318 133.884 582.621C138.777 591.546 141.604 597.998 142.597 600.584C142.726 600.923 138.94 593.224 131.542 582.013C129.359 581.457 127.092 580.924 124.765 580.427C129.359 590.024 131.938 596.929 132.831 599.699C132.945 600.061 129.496 591.956 122.538 579.963C119.94 579.44 117.262 578.962 114.524 578.543C118.267 587.856 120.253 594.51 120.904 597.126C120.989 597.463 118.304 589.735 112.614 578.266C110.301 577.938 107.945 577.657 105.566 577.432C108.397 584.619 109.927 589.752 110.439 591.827C110.505 592.098 108.461 586.205 104.121 577.303C100.791 577.024 97.4047 576.847 93.9807 576.805C93.9765 576.803 91.8826 576.666 92.3489 576.649ZM87.1099 575.656C87.1099 575.656 73.7908 564.733 55.8738 568.979C37.9526 573.233 20.1064 588.353 16.9863 607.629C13.8746 626.903 11.5184 632.908 2.26018 640.628C-6.99597 648.344 14.0203 631.156 32.0934 631.233C68.7537 631.403 90.2091 594.766 87.1016 575.656L87.1099 575.656ZM84.7953 577.654C84.7953 577.654 80.0205 578.733 73.4578 581.322C63.24 578.604 56.9998 576.085 57.2559 576.212C59.1895 577.205 64.135 579.461 71.5491 582.096C69.2449 583.064 66.7763 584.196 64.2432 585.522C52.4831 583.636 45.2814 581.586 45.5811 581.703C47.904 582.594 53.68 584.521 62.2242 586.609C60.3052 587.683 58.3674 588.861 56.4628 590.156C42.3465 589.556 33.488 588.076 33.8584 588.176C36.6705 588.905 43.7994 590.424 54.2544 591.723C52.6767 592.895 51.124 594.15 49.642 595.49C49.234 595.863 48.8281 596.225 48.4306 596.589C35.2051 597.003 26.8378 596.238 27.1874 596.306C29.8767 596.797 36.7163 597.726 46.6759 598.215C44.9983 599.784 43.4039 601.325 41.9074 602.807C30.3554 604.819 22.8747 605.179 23.1932 605.188C25.5723 605.285 31.5855 605.269 40.236 604.48C37.988 606.757 35.9607 608.909 34.1644 610.893C25.8095 613.499 20.3187 614.488 20.556 614.471C22.3127 614.311 26.6629 613.717 32.8594 612.339C28.3177 617.449 25.4536 621.225 24.3276 622.851C24.186 623.059 27.5101 619.073 33.5795 613.18C32.1267 618.956 31.4481 623.03 31.2421 624.709C31.2171 624.938 32.3307 619.712 35.0844 611.738C36.9182 609.996 38.9642 608.112 41.2059 606.147C40.1465 615.033 39.9425 621.221 39.9716 623.696C39.9716 624.025 40.5711 616.415 42.9731 604.617C44.8588 603.008 46.8674 601.343 48.9967 599.661C48.008 609.811 47.9518 616.862 48.0601 619.627C48.0747 619.983 48.5159 611.409 50.9013 598.175C52.6913 596.795 54.5687 595.401 56.5107 594.017C56.0653 604.661 56.417 612.025 56.6772 614.929C56.7209 615.303 56.696 606.489 58.3715 592.705C60.557 591.19 62.8216 589.683 65.1736 588.216C65.4005 598.256 66.1894 605.159 66.6223 607.821C66.6744 608.16 66.104 600.003 66.818 587.196C68.812 585.98 70.8643 584.788 72.9645 583.632C73.1934 591.361 73.8054 596.677 74.1467 598.787C74.1946 599.064 73.7533 592.839 74.2425 582.937C77.1835 581.355 80.2266 579.848 83.3571 578.443C83.3612 578.443 85.2324 577.492 84.7953 577.654ZM94.9798 595.932C94.9798 595.932 78.3658 608.281 76.5986 629.79C74.8315 651.306 87.395 672.018 108.184 685.125C128.98 698.238 131.992 700.927 139.743 711.913C147.49 722.901 131.24 692.762 136.267 672.135C149.257 618.74 119.301 608.1 94.9756 595.934L94.9798 595.934L94.9798 595.932ZM96.0663 598.404C96.0663 598.404 95.5355 604.103 96.0517 612.367C89.2267 622.805 84.0918 628.87 84.3291 628.633C86.1587 626.83 90.5234 622.101 96.2224 614.775C96.4701 617.683 96.8448 620.842 97.4151 624.137C90.9689 636.59 86.0067 643.917 86.2523 643.615C88.111 641.338 92.4134 635.575 97.9042 626.783C98.4121 629.305 99.0386 631.882 99.8046 634.473C93.9495 650.018 89.0269 659.38 89.2683 658.999C91.1271 656.125 95.4523 648.704 100.768 637.487C101.509 639.669 102.361 641.846 103.333 643.981C103.597 644.568 103.859 645.141 104.136 645.715C99.7525 660.627 95.8103 669.708 96.0184 669.34C97.5628 666.505 101.12 659.203 105.325 648.259C106.484 650.692 107.643 653.017 108.773 655.209C106.813 668.825 104.471 677.297 104.598 676.951C105.581 674.327 107.766 667.606 110.045 657.667C111.804 660.991 113.494 664.017 115.072 666.727C114.949 676.983 114.056 683.466 114.127 683.192C114.587 681.17 115.515 676.104 116.231 668.701C120.34 675.584 123.56 680.119 124.986 681.961C125.171 682.195 121.884 677.064 117.438 668.193C123.441 671.866 127.798 674.069 129.621 674.895C129.873 675.007 124.374 671.906 116.364 666.001C115.064 663.335 113.686 660.381 112.289 657.18C121.947 661.518 128.872 663.942 131.684 664.792C132.058 664.904 123.662 661.538 111.207 654.665C110.076 651.987 108.936 649.152 107.816 646.182C118.925 650.886 126.882 653.452 130.046 654.316C130.46 654.43 120.927 650.886 106.834 643.524C105.93 641.032 105.048 638.451 104.188 635.795C116.063 640.062 124.517 642.296 127.9 643.022C128.337 643.118 118.367 640.01 103.395 633.245C102.483 630.269 101.613 627.203 100.816 624.058C112.254 627.367 120.348 628.933 123.516 629.397C123.916 629.455 114.477 627.201 100.267 621.854C99.6193 619.2 99.0219 616.479 98.4891 613.728C107.31 616.221 113.546 617.42 116.063 617.793C116.385 617.837 109.186 616.115 98.1706 612.061C97.4629 608.208 96.8739 604.278 96.441 600.288C96.441 600.288 96.0372 597.863 96.0705 598.402L96.0705 598.404L96.0663 598.404Z" fill="#DFDFDF"/>
<path fill-rule="evenodd" clip-rule="evenodd" d="M124.172 470.779C147.161 441.177 180.402 418.213 221.146 414.123C224.818 413.756 228.554 413.544 232.355 413.49L232.346 412.389C228.518 412.443 224.751 412.659 221.036 413.03C179.954 417.153 146.454 440.288 123.294 470.109C100.546 499.401 79.4523 546.968 89.9406 584.784C91.8743 591.75 94.6759 596.448 94.6759 596.448C77.3147 555.825 98.8679 503.358 124.172 470.779Z" fill="#DFDFDF"/>
<path fill-rule="evenodd" clip-rule="evenodd" d="M290.793 679.339C251.554 676.306 211.251 659.062 181.778 622.351C179.118 619.044 176.547 615.568 174.068 611.93L175.379 619.117C200.261 655.638 252.153 677.632 290.797 680.621L291.282 680.659L291.642 679.402L290.793 679.339Z" fill="#DFDFDF"/>
<path fill-rule="evenodd" clip-rule="evenodd" d="M195.459 339.696C195.459 339.696 184.434 359.152 162.029 361.716C139.629 364.276 116.373 350.297 100.144 326.642C83.9087 302.984 80.7304 299.573 68.2688 290.903C55.8052 282.236 89.3954 300.243 110.491 293.944C165.087 277.657 179.798 311.942 195.459 339.696ZM192.732 338.5C192.732 338.5 186.8 339.249 178.056 338.851C167.886 346.977 162.115 353.053 162.333 352.77C164.015 350.622 168.469 345.464 175.504 338.71C172.418 338.5 169.05 338.144 165.516 337.569C153.189 345.306 146.069 351.207 146.358 350.915C148.533 348.721 154.086 343.62 162.679 337.065C159.971 336.543 157.184 335.889 154.376 335.067C138.721 342.207 129.463 348.105 129.829 347.82C132.637 345.601 139.928 340.423 151.089 334.035C148.708 333.233 146.325 332.301 143.96 331.233C143.309 330.938 142.678 330.644 142.041 330.353C126.884 335.765 117.807 340.533 118.167 340.285C120.965 338.443 128.218 334.158 139.233 329.037C136.54 327.759 133.961 326.481 131.513 325.237C117.434 327.83 108.805 330.727 109.157 330.573C111.802 329.379 118.602 326.7 128.787 323.821C125.082 321.883 121.699 320.008 118.671 318.255C107.908 318.645 101.191 319.831 101.476 319.746C103.543 319.167 108.763 317.968 116.458 316.963C108.744 312.394 103.595 308.793 101.486 307.188C101.22 306.989 107 310.656 116.847 315.556C112.279 308.727 109.448 303.758 108.37 301.669C108.226 301.388 112.137 307.653 119.281 316.744C122.24 318.178 125.508 319.69 129.036 321.228C123.337 310.198 119.97 302.272 118.748 299.056C118.588 298.63 123.113 308.219 131.811 322.412C134.756 323.653 137.872 324.902 141.129 326.121C134.875 313.424 131.236 304.314 129.952 300.682C129.786 300.212 134.631 311.112 144.031 327.187C146.762 328.163 149.578 329.123 152.471 330.045C146.581 316.459 143.242 306.76 142.072 302.886C141.927 302.382 146.362 313.801 155.244 330.9C158.478 331.878 161.809 332.811 165.205 333.656C160.37 320.547 157.773 311.245 156.913 307.607C156.803 307.141 160.291 317.977 167.582 334.235C170.455 334.909 173.381 335.536 176.341 336.083C172.674 325.978 170.68 318.807 169.995 315.916C169.909 315.55 172.563 323.807 178.127 336.412C182.265 337.134 186.463 337.713 190.709 338.123C190.707 338.121 193.307 338.518 192.732 338.5Z" fill="#DFDFDF"/>
<path fill-rule="evenodd" clip-rule="evenodd" d="M229.942 236.676C229.942 236.676 275.607 160.004 268.563 92.9547C257.971 23.2745 236.62 -7.77225e-05 236.62 -7.77225e-05C266.022 50.6329 287.692 125.681 229.942 236.676Z" fill="#DFDFDF"/>
<path fill-rule="evenodd" clip-rule="evenodd" d="M250.372 176.314C268.686 105.56 229.69 24.8024 152.12 24.5567C229.224 24.8024 269.637 98.379 252.191 168.744L250.372 176.314Z" fill="#DFDFDF"/>
</svg>
