<svg width="934" height="186" viewBox="0 0 934 186" fill="none" xmlns="http://www.w3.org/2000/svg">
<path d="M932.103 117.851C930.929 117.65 929.813 118.448 929.614 119.624C929.577 119.843 925.712 141.571 907.016 153.456C893.016 162.356 874.348 163.649 851.528 157.312C827.438 150.62 809.34 142.678 793.371 135.67C791.741 134.957 790.142 134.256 788.565 133.566C791.959 126.863 794.472 119.786 795.96 112.493C801.16 86.9977 793.209 63.1934 773.568 45.4602C733.811 9.55685 669.312 38.8851 606.94 67.2401C587.786 75.9477 569.692 84.1752 552.635 90.3588C521.047 101.809 494.647 100.479 476.291 86.5024C473.925 84.7051 471.792 82.7607 469.852 80.7233C481.002 67.3871 485.366 50.6856 484.43 38.7661C482.771 17.6113 474.567 6.29743 467.979 0.531277C467.082 -0.249512 465.713 -0.160835 464.927 0.73891C464.629 1.07848 464.497 1.49158 464.447 1.90901C458.426 7.76385 451.04 18.8614 449.478 38.7661C448.544 50.6856 452.909 67.3871 464.058 80.7233C462.118 82.7585 459.983 84.7051 457.619 86.5024C439.263 100.477 412.863 101.807 381.273 90.3588C364.214 84.1752 346.122 75.9477 326.968 67.2401C264.596 38.8829 200.099 9.55685 160.34 45.4602C140.701 63.1934 132.75 86.9977 137.948 112.493C139.436 119.786 141.949 126.866 145.343 133.566C143.766 134.252 142.168 134.957 140.537 135.67C124.566 142.678 106.47 150.62 82.3799 157.312C59.5618 163.653 40.8899 162.351 26.892 153.456C8.19844 141.573 4.33343 119.843 4.2945 119.624C4.09552 118.448 2.98597 117.65 1.80506 117.851C0.628466 118.048 -0.165299 119.164 0.0293573 120.338C0.189408 121.303 4.20366 144.127 24.5258 157.074C39.6095 166.688 59.4645 168.163 83.5413 161.48C107.925 154.704 126.178 146.695 142.278 139.631C144.019 138.865 145.723 138.119 147.397 137.388C158.677 157.212 177.74 173.298 200.497 181.147C210.425 184.568 218.851 185.996 225.881 185.996C241.176 185.996 249.856 179.237 252.934 171.552C258.034 158.819 249.655 139.726 223.781 127.865C194.891 114.626 175.484 120.611 149.314 131.844C146.035 125.414 143.612 118.625 142.187 111.626C137.303 87.692 144.78 65.3324 163.236 48.6677C200.895 14.6655 264.077 43.3946 325.175 71.1743C344.413 79.9187 362.579 88.1808 379.798 94.4206C421.541 109.552 446.582 100.338 460.238 89.9435C462.678 88.0856 464.901 86.0698 466.952 83.9502C469 86.0698 471.228 88.0878 473.665 89.9435C487.319 100.34 512.363 109.552 554.104 94.4206C571.322 88.1808 589.49 79.9208 608.725 71.1743C669.834 43.3968 733.01 14.672 770.67 48.672C789.126 65.3367 796.6 87.6963 791.721 111.63C790.294 118.629 787.871 125.419 784.592 131.849C758.422 120.613 739.019 114.63 710.123 127.869C684.251 139.73 675.875 158.826 680.975 171.556C684.052 179.241 692.727 186 708.025 186C715.055 186 723.485 184.573 733.409 181.151C756.164 173.302 775.232 157.217 786.509 137.392C788.18 138.123 789.891 138.871 791.628 139.635C807.728 146.699 825.979 154.708 850.365 161.484C874.446 168.172 894.299 166.688 909.378 157.078C929.702 144.132 933.714 121.307 933.874 120.342C934.076 119.164 933.282 118.048 932.103 117.851ZM221.983 131.801C245.398 142.535 253.256 159.116 248.917 169.952C244.836 180.149 228.712 186.305 201.91 177.061C180.294 169.606 162.172 154.401 151.388 135.666C176.321 124.997 194.917 119.399 221.983 131.801ZM453.791 39.1079C455.201 21.113 461.573 10.9822 466.95 5.5253C472.539 11.1941 478.726 21.3574 480.117 39.1079C480.84 48.3043 477.595 64.3094 466.954 77.4184C456.313 64.3094 453.069 48.3065 453.791 39.1079ZM732 177.061C705.19 186.303 689.077 180.145 684.993 169.952C680.654 159.116 688.514 142.535 711.929 131.801C722.83 126.805 732.357 124.729 741.478 124.729C755.002 124.729 767.631 129.292 782.525 135.666C771.739 154.401 753.616 169.606 732 177.061Z" fill="#BEA046"/>
<path d="M136.416 155.019C130.741 155.019 126.123 159.637 126.123 165.31C126.123 170.983 130.741 175.601 136.416 175.601C142.092 175.601 146.709 170.983 146.709 165.31C146.709 159.635 142.092 155.019 136.416 155.019ZM136.416 171.273C133.127 171.273 130.449 168.6 130.449 165.308C130.449 162.016 133.127 159.343 136.416 159.343C139.706 159.343 142.384 162.016 142.384 165.308C142.384 168.6 139.706 171.273 136.416 171.273Z" fill="#BEA046"/>
<path d="M399.144 25.4581L397.271 25.3413L396.891 27.1776C396.722 28.0059 392.822 47.5776 402.968 60.8575C413.112 74.1352 433.023 75.5194 433.862 75.5713L435.735 75.6903L436.116 73.8519C436.287 73.0235 440.184 53.4519 430.039 40.1741C419.895 26.8942 399.986 25.5122 399.144 25.4581ZM432.182 71.0402C427.149 70.3545 413.618 67.6769 406.403 58.2318C399.188 48.7866 400.163 35.0287 400.823 29.9914C405.858 30.6792 419.387 33.3547 426.604 42.7998C433.817 52.245 432.844 66.0007 432.182 71.0402Z" fill="#BEA046"/>
<path d="M797.494 155.019C791.818 155.019 787.201 159.637 787.201 165.31C787.201 170.983 791.818 175.601 797.494 175.601C803.169 175.601 807.787 170.983 807.787 165.31C807.785 159.635 803.169 155.019 797.494 155.019ZM797.494 171.273C794.202 171.273 791.526 168.6 791.526 165.308C791.526 162.016 794.202 159.343 797.494 159.343C800.783 159.343 803.461 162.016 803.461 165.308C803.461 168.6 800.783 171.273 797.494 171.273Z" fill="#BEA046"/>
<path d="M536.639 25.3435L534.766 25.4603C533.922 25.5122 514.015 26.8964 503.87 40.1763C493.728 53.4562 497.623 73.0257 497.794 73.8541L498.175 75.6925L500.048 75.5735C500.891 75.5238 520.8 74.1374 530.944 60.8597C541.086 47.5776 537.19 28.0081 537.02 27.1798L536.639 25.3435ZM527.505 58.2318C520.29 67.6791 506.755 70.3546 501.724 71.0402C501.056 66.0116 500.069 52.271 507.306 42.7999C514.522 33.3547 528.052 30.6814 533.085 29.9915C533.747 35.0287 534.72 48.7845 527.505 58.2318Z" fill="#BEA046"/>
</svg>
