<svg width="761" height="653" viewBox="0 0 761 653" fill="none" xmlns="http://www.w3.org/2000/svg">
<path opacity="0.4045" d="M81.866 321.784C83.3743 321.784 84.597 320.562 84.597 319.053C84.597 317.545 83.3743 316.322 81.866 316.322C80.3577 316.322 79.135 317.545 79.135 319.053C79.135 320.562 80.3577 321.784 81.866 321.784Z" fill="#BEA046"/>
<path opacity="0.8732" d="M136.207 271.516C137.715 271.516 138.938 270.293 138.938 268.785C138.938 267.276 137.715 266.054 136.207 266.054C134.699 266.054 133.476 267.276 133.476 268.785C133.476 270.293 134.699 271.516 136.207 271.516Z" fill="#BEA046"/>
<path opacity="0.2682" d="M157.683 588.196C159.191 588.196 160.414 586.974 160.414 585.465C160.414 583.957 159.191 582.734 157.683 582.734C156.175 582.734 154.952 583.957 154.952 585.465C154.952 586.974 156.175 588.196 157.683 588.196Z" fill="#BEA046"/>
<path opacity="0.5692" d="M645.381 429.708C646.889 429.708 648.112 428.485 648.112 426.977C648.112 425.469 646.889 424.246 645.381 424.246C643.873 424.246 642.65 425.469 642.65 426.977C642.65 428.485 643.873 429.708 645.381 429.708Z" fill="#BEA046"/>
<path opacity="0.8548" d="M701.497 183.888C703.005 183.888 704.228 182.665 704.228 181.157C704.228 179.648 703.005 178.426 701.497 178.426C699.989 178.426 698.766 179.648 698.766 181.157C698.766 182.665 699.989 183.888 701.497 183.888Z" fill="#BEA046"/>
<path opacity="0.8511" d="M89.126 538.046C90.6343 538.046 91.857 536.823 91.857 535.315C91.857 533.807 90.6343 532.584 89.126 532.584C87.6177 532.584 86.395 533.807 86.395 535.315C86.395 536.823 87.6177 538.046 89.126 538.046Z" fill="#BEA046"/>
<path opacity="0.9584" d="M592.851 152.636C594.359 152.636 595.582 151.413 595.582 149.905C595.582 148.397 594.359 147.174 592.851 147.174C591.343 147.174 590.12 148.397 590.12 149.905C590.12 151.413 591.343 152.636 592.851 152.636Z" fill="#BEA046"/>
<path opacity="0.8049" d="M74.777 471.725C76.2853 471.725 77.508 470.502 77.508 468.994C77.508 467.485 76.2853 466.263 74.777 466.263C73.2687 466.263 72.046 467.485 72.046 468.994C72.046 470.502 73.2687 471.725 74.777 471.725Z" fill="#BEA046"/>
<path opacity="0.4705" d="M700.632 353.105C702.14 353.105 703.363 351.882 703.363 350.374C703.363 348.865 702.14 347.643 700.632 347.643C699.124 347.643 697.901 348.865 697.901 350.374C697.901 351.882 699.124 353.105 700.632 353.105Z" fill="#BEA046"/>
<path opacity="0.9438" d="M76.796 158.857C78.3043 158.857 79.527 157.634 79.527 156.126C79.527 154.617 78.3043 153.395 76.796 153.395C75.2877 153.395 74.065 154.617 74.065 156.126C74.065 157.634 75.2877 158.857 76.796 158.857Z" fill="#BEA046"/>
<path opacity="0.4162" d="M696.611 81.6983C698.119 81.6983 699.342 80.4756 699.342 78.9673C699.342 77.459 698.119 76.2363 696.611 76.2363C695.103 76.2363 693.88 77.459 693.88 78.9673C693.88 80.4756 695.103 81.6983 696.611 81.6983Z" fill="#BEA046"/>
<path opacity="0.9728" d="M74.731 409.104C76.2393 409.104 77.462 407.881 77.462 406.373C77.462 404.864 76.2393 403.642 74.731 403.642C73.2227 403.642 72 404.864 72 406.373C72 407.881 73.2227 409.104 74.731 409.104Z" fill="#BEA046"/>
<path opacity="0.6414" d="M648.663 77.3917C650.171 77.3917 651.394 76.169 651.394 74.6607C651.394 73.1524 650.171 71.9297 648.663 71.9297C647.155 71.9297 645.932 73.1524 645.932 74.6607C645.932 76.169 647.155 77.3917 648.663 77.3917Z" fill="#BEA046"/>
<path opacity="0.1565" d="M628.733 586.692C630.241 586.692 631.464 585.47 631.464 583.961C631.464 582.453 630.241 581.23 628.733 581.23C627.225 581.23 626.002 582.453 626.002 583.961C626.002 585.47 627.225 586.692 628.733 586.692Z" fill="#BEA046"/>
<path opacity="0.4263" d="M539.698 552.247C541.206 552.247 542.429 551.024 542.429 549.516C542.429 548.008 541.206 546.785 539.698 546.785C538.19 546.785 536.967 548.008 536.967 549.516C536.967 551.024 538.19 552.247 539.698 552.247Z" fill="#BEA046"/>
<path opacity="0.6362" d="M332.27 175.537C333.778 175.537 335.001 174.314 335.001 172.806C335.001 171.298 333.778 170.075 332.27 170.075C330.762 170.075 329.539 171.298 329.539 172.806C329.539 174.314 330.762 175.537 332.27 175.537Z" fill="#BEA046"/>
<path opacity="0.8629" d="M503.731 474.462C505.239 474.462 506.462 473.239 506.462 471.731C506.462 470.223 505.239 469 503.731 469C502.223 469 501 470.223 501 471.731C501 473.239 502.223 474.462 503.731 474.462Z" fill="#BEA046"/>
<path opacity="0.2063" d="M241.491 82.8966C242.999 82.8966 244.222 81.6739 244.222 80.1656C244.222 78.6573 242.999 77.4346 241.491 77.4346C239.983 77.4346 238.76 78.6573 238.76 80.1656C238.76 81.6739 239.983 82.8966 241.491 82.8966Z" fill="#BEA046"/>
<path opacity="0.7001" d="M115.608 123.059C117.116 123.059 118.339 121.836 118.339 120.328C118.339 118.819 117.116 117.597 115.608 117.597C114.1 117.597 112.877 118.819 112.877 120.328C112.877 121.836 114.1 123.059 115.608 123.059Z" fill="#BEA046"/>
<path opacity="0.2405" d="M239.961 131.885C241.469 131.885 242.692 130.662 242.692 129.154C242.692 127.646 241.469 126.423 239.961 126.423C238.453 126.423 237.23 127.646 237.23 129.154C237.23 130.662 238.453 131.885 239.961 131.885Z" fill="#BEA046"/>
<path opacity="0.1232" d="M548.653 79.2472C550.161 79.2472 551.384 78.0244 551.384 76.5162C551.384 75.0079 550.161 73.7852 548.653 73.7852C547.145 73.7852 545.922 75.0079 545.922 76.5162C545.922 78.0244 547.145 79.2472 548.653 79.2472Z" fill="#BEA046"/>
<path opacity="0.7628" d="M278.122 196.408C279.63 196.408 280.853 195.186 280.853 193.677C280.853 192.169 279.63 190.946 278.122 190.946C276.614 190.946 275.391 192.169 275.391 193.677C275.391 195.186 276.614 196.408 278.122 196.408Z" fill="#BEA046"/>
<path opacity="0.8856" d="M612.037 387.191C613.545 387.191 614.768 385.968 614.768 384.46C614.768 382.951 613.545 381.729 612.037 381.729C610.529 381.729 609.306 382.951 609.306 384.46C609.306 385.968 610.529 387.191 612.037 387.191Z" fill="#BEA046"/>
<path opacity="0.7432" d="M357.552 77.8038C359.06 77.8038 360.283 76.5811 360.283 75.0728C360.283 73.5645 359.06 72.3418 357.552 72.3418C356.044 72.3418 354.821 73.5645 354.821 75.0728C354.821 76.5811 356.044 77.8038 357.552 77.8038Z" fill="#BEA046"/>
<path opacity="0.4638" d="M355.961 576.365C357.469 576.365 358.692 575.143 358.692 573.634C358.692 572.126 357.469 570.903 355.961 570.903C354.453 570.903 353.23 572.126 353.23 573.634C353.23 575.143 354.453 576.365 355.961 576.365Z" fill="#BEA046"/>
<path opacity="0.5694" d="M240.047 178.125C241.555 178.125 242.778 176.902 242.778 175.394C242.778 173.886 241.555 172.663 240.047 172.663C238.539 172.663 237.316 173.886 237.316 175.394C237.316 176.902 238.539 178.125 240.047 178.125Z" fill="#BEA046"/>
<path opacity="0.2455" d="M392.731 469.462C394.239 469.462 395.462 468.239 395.462 466.731C395.462 465.223 394.239 464 392.731 464C391.223 464 390 465.223 390 466.731C390 468.239 391.223 469.462 392.731 469.462Z" fill="#BEA046"/>
<path opacity="0.2279" d="M325.731 481.442C327.239 481.442 328.462 480.22 328.462 478.711C328.462 477.203 327.239 475.98 325.731 475.98C324.223 475.98 323 477.203 323 478.711C323 480.22 324.223 481.442 325.731 481.442Z" fill="#BEA046"/>
<path opacity="0.5329" d="M701.605 253.584C703.113 253.584 704.336 252.361 704.336 250.853C704.336 249.345 703.113 248.122 701.605 248.122C700.097 248.122 698.874 249.345 698.874 250.853C698.874 252.361 700.097 253.584 701.605 253.584Z" fill="#BEA046"/>
<path opacity="0.9624" d="M221.731 482.462C223.239 482.462 224.462 481.239 224.462 479.731C224.462 478.223 223.239 477 221.731 477C220.223 477 219 478.223 219 479.731C219 481.239 220.223 482.462 221.731 482.462Z" fill="#BEA046"/>
<path opacity="0.7819" d="M694.108 402.211C695.616 402.211 696.839 400.988 696.839 399.48C696.839 397.972 695.616 396.749 694.108 396.749C692.6 396.749 691.377 397.972 691.377 399.48C691.377 400.988 692.6 402.211 694.108 402.211Z" fill="#BEA046"/>
<path opacity="0.5913" d="M650.73 120.741C652.238 120.741 653.461 119.519 653.461 118.01C653.461 116.502 652.238 115.279 650.73 115.279C649.222 115.279 647.999 116.502 647.999 118.01C647.999 119.519 649.222 120.741 650.73 120.741Z" fill="#BEA046"/>
<path opacity="0.5761" d="M556.366 187.162C557.874 187.162 559.097 185.939 559.097 184.431C559.097 182.923 557.874 181.7 556.366 181.7C554.858 181.7 553.635 182.923 553.635 184.431C553.635 185.939 554.858 187.162 556.366 187.162Z" fill="#BEA046"/>
<path opacity="0.2781" d="M197.674 186.243C199.182 186.243 200.405 185.021 200.405 183.512C200.405 182.004 199.182 180.781 197.674 180.781C196.166 180.781 194.943 182.004 194.943 183.512C194.943 185.021 196.166 186.243 197.674 186.243Z" fill="#BEA046"/>
<path opacity="0.8049" d="M168.625 104.501C170.133 104.501 171.356 103.278 171.356 101.77C171.356 100.262 170.133 99.0391 168.625 99.0391C167.117 99.0391 165.894 100.262 165.894 101.77C165.894 103.278 167.117 104.501 168.625 104.501Z" fill="#BEA046"/>
<path opacity="0.2607" d="M138.03 78.4796C139.538 78.4796 140.761 77.2569 140.761 75.7486C140.761 74.2403 139.538 73.0176 138.03 73.0176C136.522 73.0176 135.299 74.2403 135.299 75.7486C135.299 77.2569 136.522 78.4796 138.03 78.4796Z" fill="#BEA046"/>
<path opacity="0.8191" d="M624.692 537.832C626.2 537.832 627.423 536.609 627.423 535.101C627.423 533.593 626.2 532.37 624.692 532.37C623.184 532.37 621.961 533.593 621.961 535.101C621.961 536.609 623.184 537.832 624.692 537.832Z" fill="#BEA046"/>
<path opacity="0.5443" d="M77.832 575.967C79.3403 575.967 80.563 574.744 80.563 573.236C80.563 571.728 79.3403 570.505 77.832 570.505C76.3237 570.505 75.101 571.728 75.101 573.236C75.101 574.744 76.3237 575.967 77.832 575.967Z" fill="#BEA046"/>
<path opacity="0.2319" d="M412.974 161.21C414.482 161.21 415.705 159.987 415.705 158.479C415.705 156.971 414.482 155.748 412.974 155.748C411.466 155.748 410.243 156.971 410.243 158.479C410.243 159.987 411.466 161.21 412.974 161.21Z" fill="#BEA046"/>
<path opacity="0.3439" d="M689.538 443.477C691.046 443.477 692.269 442.254 692.269 440.746C692.269 439.237 691.046 438.015 689.538 438.015C688.03 438.015 686.807 439.237 686.807 440.746C686.807 442.254 688.03 443.477 689.538 443.477Z" fill="#BEA046"/>
<path opacity="0.1813" d="M192.033 553.964C193.541 553.964 194.764 552.741 194.764 551.233C194.764 549.725 193.541 548.502 192.033 548.502C190.525 548.502 189.302 549.725 189.302 551.233C189.302 552.741 190.525 553.964 192.033 553.964Z" fill="#BEA046"/>
<path opacity="0.2425" d="M102.337 440.821C103.845 440.821 105.068 439.599 105.068 438.09C105.068 436.582 103.845 435.359 102.337 435.359C100.829 435.359 99.606 436.582 99.606 438.09C99.606 439.599 100.829 440.821 102.337 440.821Z" fill="#BEA046"/>
<path opacity="0.2813" d="M167.139 239.828C168.647 239.828 169.87 238.606 169.87 237.097C169.87 235.589 168.647 234.366 167.139 234.366C165.631 234.366 164.408 235.589 164.408 237.097C164.408 238.606 165.631 239.828 167.139 239.828Z" fill="#BEA046"/>
<path opacity="0.4448" d="M158.154 351.959C159.662 351.959 160.885 350.736 160.885 349.228C160.885 347.72 159.662 346.497 158.154 346.497C156.646 346.497 155.423 347.72 155.423 349.228C155.423 350.736 156.646 351.959 158.154 351.959Z" fill="#BEA046"/>
<path opacity="0.8161" d="M151.814 146.4C153.322 146.4 154.545 145.178 154.545 143.669C154.545 142.161 153.322 140.938 151.814 140.938C150.306 140.938 149.083 142.161 149.083 143.669C149.083 145.178 150.306 146.4 151.814 146.4Z" fill="#BEA046"/>
<path opacity="0.7055" d="M77.413 361.662C78.9213 361.662 80.144 360.439 80.144 358.931C80.144 357.423 78.9213 356.2 77.413 356.2C75.9047 356.2 74.682 357.423 74.682 358.931C74.682 360.439 75.9047 361.662 77.413 361.662Z" fill="#BEA046"/>
<path opacity="0.1363" d="M282.055 546.259C283.563 546.259 284.786 545.036 284.786 543.528C284.786 542.02 283.563 540.797 282.055 540.797C280.547 540.797 279.324 542.02 279.324 543.528C279.324 545.036 280.547 546.259 282.055 546.259Z" fill="#BEA046"/>
<path opacity="0.5453" d="M520.921 584.273C522.429 584.273 523.652 583.05 523.652 581.542C523.652 580.033 522.429 578.811 520.921 578.811C519.413 578.811 518.19 580.033 518.19 581.542C518.19 583.05 519.413 584.273 520.921 584.273Z" fill="#BEA046"/>
<path opacity="0.6135" d="M76.404 208.601C77.9123 208.601 79.135 207.378 79.135 205.87C79.135 204.361 77.9123 203.139 76.404 203.139C74.8957 203.139 73.673 204.361 73.673 205.87C73.673 207.378 74.8957 208.601 76.404 208.601Z" fill="#BEA046"/>
<path opacity="0.48" d="M394.368 549.632C395.876 549.632 397.099 548.409 397.099 546.901C397.099 545.393 395.876 544.17 394.368 544.17C392.86 544.17 391.637 545.393 391.637 546.901C391.637 548.409 392.86 549.632 394.368 549.632Z" fill="#BEA046"/>
<path opacity="0.9053" d="M499.952 77.0606C501.46 77.0606 502.683 75.8379 502.683 74.3296C502.683 72.8213 501.46 71.5986 499.952 71.5986C498.444 71.5986 497.221 72.8213 497.221 74.3296C497.221 75.8379 498.444 77.0606 499.952 77.0606Z" fill="#BEA046"/>
<path opacity="0.9209" d="M199.531 78.7813C201.039 78.7813 202.262 77.5586 202.262 76.0503C202.262 74.542 201.039 73.3193 199.531 73.3193C198.023 73.3193 196.8 74.542 196.8 76.0503C196.8 77.5586 198.023 78.7813 199.531 78.7813Z" fill="#BEA046"/>
<path opacity="0.101" d="M230.643 571.412C232.151 571.412 233.374 570.189 233.374 568.681C233.374 567.173 232.151 565.95 230.643 565.95C229.135 565.95 227.912 567.173 227.912 568.681C227.912 570.189 229.135 571.412 230.643 571.412Z" fill="#BEA046"/>
<path opacity="0.8823" d="M353.314 532.223C354.822 532.223 356.045 531 356.045 529.492C356.045 527.983 354.822 526.761 353.314 526.761C351.806 526.761 350.583 527.983 350.583 529.492C350.583 531 351.806 532.223 353.314 532.223Z" fill="#BEA046"/>
<path opacity="0.5111" d="M311.938 516.919C313.446 516.919 314.669 515.696 314.669 514.188C314.669 512.68 313.446 511.457 311.938 511.457C310.43 511.457 309.207 512.68 309.207 514.188C309.207 515.696 310.43 516.919 311.938 516.919Z" fill="#BEA046"/>
<path opacity="0.8718" d="M310.517 573.756C312.025 573.756 313.248 572.533 313.248 571.025C313.248 569.517 312.025 568.294 310.517 568.294C309.009 568.294 307.786 569.517 307.786 571.025C307.786 572.533 309.009 573.756 310.517 573.756Z" fill="#BEA046"/>
<path opacity="0.5335" d="M448.06 78.4718C449.568 78.4718 450.791 77.2491 450.791 75.7408C450.791 74.2325 449.568 73.0098 448.06 73.0098C446.552 73.0098 445.329 74.2325 445.329 75.7408C445.329 77.2491 446.552 78.4718 448.06 78.4718Z" fill="#BEA046"/>
<path opacity="0.2377" d="M113.105 182.931C114.613 182.931 115.836 181.708 115.836 180.2C115.836 178.691 114.613 177.469 113.105 177.469C111.597 177.469 110.374 178.691 110.374 180.2C110.374 181.708 111.597 182.931 113.105 182.931Z" fill="#BEA046"/>
<path opacity="0.8991" d="M582.988 540.349C584.496 540.349 585.719 539.126 585.719 537.618C585.719 536.109 584.496 534.887 582.988 534.887C581.48 534.887 580.257 536.109 580.257 537.618C580.257 539.126 581.48 540.349 582.988 540.349Z" fill="#BEA046"/>
<path opacity="0.4655" d="M165.337 514.986C166.845 514.986 168.068 513.764 168.068 512.255C168.068 510.747 166.845 509.524 165.337 509.524C163.829 509.524 162.606 510.747 162.606 512.255C162.606 513.764 163.829 514.986 165.337 514.986Z" fill="#BEA046"/>
<path opacity="0.473" d="M581.839 582.092C583.347 582.092 584.57 580.869 584.57 579.361C584.57 577.853 583.347 576.63 581.839 576.63C580.331 576.63 579.108 577.853 579.108 579.361C579.108 580.869 580.331 582.092 581.839 582.092Z" fill="#BEA046"/>
<path opacity="0.3356" d="M296.471 157.192C297.979 157.192 299.202 155.97 299.202 154.461C299.202 152.953 297.979 151.73 296.471 151.73C294.963 151.73 293.74 152.953 293.74 154.461C293.74 155.97 294.963 157.192 296.471 157.192Z" fill="#BEA046"/>
<path opacity="0.6365" d="M670.251 210.114C671.759 210.114 672.982 208.892 672.982 207.383C672.982 205.875 671.759 204.652 670.251 204.652C668.743 204.652 667.52 205.875 667.52 207.383C667.52 208.892 668.743 210.114 670.251 210.114Z" fill="#BEA046"/>
<path opacity="0.4311" d="M248.916 528.974C250.424 528.974 251.647 527.751 251.647 526.243C251.647 524.734 250.424 523.512 248.916 523.512C247.408 523.512 246.185 524.734 246.185 526.243C246.185 527.751 247.408 528.974 248.916 528.974Z" fill="#BEA046"/>
<path opacity="0.7051" d="M611.267 442.034C612.775 442.034 613.998 440.812 613.998 439.303C613.998 437.795 612.775 436.572 611.267 436.572C609.759 436.572 608.536 437.795 608.536 439.303C608.536 440.812 609.759 442.034 611.267 442.034Z" fill="#BEA046"/>
<path opacity="0.4622" d="M84.845 284.599C86.3533 284.599 87.576 283.376 87.576 281.868C87.576 280.359 86.3533 279.137 84.845 279.137C83.3367 279.137 82.114 280.359 82.114 281.868C82.114 283.376 83.3367 284.599 84.845 284.599Z" fill="#BEA046"/>
<path opacity="0.9519" d="M288.599 74.8839C290.107 74.8839 291.33 73.6612 291.33 72.1529C291.33 70.6446 290.107 69.4219 288.599 69.4219C287.091 69.4219 285.868 70.6446 285.868 72.1529C285.868 73.6612 287.091 74.8839 288.599 74.8839Z" fill="#BEA046"/>
<path opacity="0.7786" d="M615.725 244.367C617.233 244.367 618.456 243.145 618.456 241.636C618.456 240.128 617.233 238.905 615.725 238.905C614.217 238.905 612.994 240.128 612.994 241.636C612.994 243.145 614.217 244.367 615.725 244.367Z" fill="#BEA046"/>
<path opacity="0.9642" d="M698.685 128.356C700.193 128.356 701.416 127.133 701.416 125.625C701.416 124.116 700.193 122.894 698.685 122.894C697.177 122.894 695.954 124.116 695.954 125.625C695.954 127.133 697.177 128.356 698.685 128.356Z" fill="#BEA046"/>
<path opacity="0.7381" d="M445.731 480.462C447.239 480.462 448.462 479.239 448.462 477.731C448.462 476.223 447.239 475 445.731 475C444.223 475 443 476.223 443 477.731C443 479.239 444.223 480.462 445.731 480.462Z" fill="#BEA046"/>
<path opacity="0.392" d="M411.489 590.1C412.997 590.1 414.22 588.877 414.22 587.369C414.22 585.86 412.997 584.638 411.489 584.638C409.981 584.638 408.758 585.86 408.758 587.369C408.758 588.877 409.981 590.1 411.489 590.1Z" fill="#BEA046"/>
<path opacity="0.8899" d="M133.596 315.16C135.104 315.16 136.327 313.938 136.327 312.429C136.327 310.921 135.104 309.698 133.596 309.698C132.088 309.698 130.865 310.921 130.865 312.429C130.865 313.938 132.088 315.16 133.596 315.16Z" fill="#BEA046"/>
<path opacity="0.3324" d="M644.345 387.266C645.853 387.266 647.076 386.043 647.076 384.535C647.076 383.026 645.853 381.804 644.345 381.804C642.837 381.804 641.614 383.026 641.614 384.535C641.614 386.043 642.837 387.266 644.345 387.266Z" fill="#BEA046"/>
<path opacity="0.1282" d="M662.198 253.16C663.706 253.16 664.929 251.938 664.929 250.429C664.929 248.921 663.706 247.698 662.198 247.698C660.69 247.698 659.467 248.921 659.467 250.429C659.467 251.938 660.69 253.16 662.198 253.16Z" fill="#BEA046"/>
<path opacity="0.7143" d="M665.091 497.908C666.599 497.908 667.822 496.686 667.822 495.177C667.822 493.669 666.599 492.446 665.091 492.446C663.583 492.446 662.36 493.669 662.36 495.177C662.36 496.686 663.583 497.908 665.091 497.908Z" fill="#BEA046"/>
<path opacity="0.9502" d="M401.847 81.7755C403.355 81.7755 404.578 80.5528 404.578 79.0445C404.578 77.5362 403.355 76.3135 401.847 76.3135C400.339 76.3135 399.116 77.5362 399.116 79.0445C399.116 80.5528 400.339 81.7755 401.847 81.7755Z" fill="#BEA046"/>
<path opacity="0.1513" d="M134.713 535.841C136.221 535.841 137.444 534.618 137.444 533.11C137.444 531.602 136.221 530.379 134.713 530.379C133.205 530.379 131.982 531.602 131.982 533.11C131.982 534.618 133.205 535.841 134.713 535.841Z" fill="#BEA046"/>
<path opacity="0.9025" d="M75.971 112.999C77.4793 112.999 78.702 111.776 78.702 110.268C78.702 108.76 77.4793 107.537 75.971 107.537C74.4627 107.537 73.24 108.76 73.24 110.268C73.24 111.776 74.4627 112.999 75.971 112.999Z" fill="#BEA046"/>
<path opacity="0.4984" d="M495.252 116.602C496.76 116.602 497.983 115.379 497.983 113.871C497.983 112.362 496.76 111.14 495.252 111.14C493.744 111.14 492.521 112.362 492.521 113.871C492.521 115.379 493.744 116.602 495.252 116.602Z" fill="#BEA046"/>
<path opacity="0.1673" d="M198.845 139.094C200.353 139.094 201.576 137.871 201.576 136.363C201.576 134.855 200.353 133.632 198.845 133.632C197.337 133.632 196.114 134.855 196.114 136.363C196.114 137.871 197.337 139.094 198.845 139.094Z" fill="#BEA046"/>
<path opacity="0.1388" d="M120.429 583.916C121.937 583.916 123.16 582.693 123.16 581.185C123.16 579.677 121.937 578.454 120.429 578.454C118.921 578.454 117.698 579.677 117.698 581.185C117.698 582.693 118.921 583.916 120.429 583.916Z" fill="#BEA046"/>
<path opacity="0.7116" d="M120.188 491.771C121.696 491.771 122.919 490.548 122.919 489.04C122.919 487.531 121.696 486.309 120.188 486.309C118.68 486.309 117.457 487.531 117.457 489.04C117.457 490.548 118.68 491.771 120.188 491.771Z" fill="#BEA046"/>
<path opacity="0.5106" d="M633.223 320.147C634.731 320.147 635.954 318.924 635.954 317.416C635.954 315.907 634.731 314.685 633.223 314.685C631.715 314.685 630.492 315.907 630.492 317.416C630.492 318.924 631.715 320.147 633.223 320.147Z" fill="#BEA046"/>
<path opacity="0.9441" d="M693.096 303.465C694.604 303.465 695.827 302.242 695.827 300.734C695.827 299.226 694.604 298.003 693.096 298.003C691.588 298.003 690.365 299.226 690.365 300.734C690.365 302.242 691.588 303.465 693.096 303.465Z" fill="#BEA046"/>
<path opacity="0.5064" d="M490.86 539.148C492.368 539.148 493.591 537.926 493.591 536.418C493.591 534.909 492.368 533.687 490.86 533.687C489.352 533.687 488.129 534.909 488.129 536.418C488.129 537.926 489.352 539.148 490.86 539.148Z" fill="#BEA046"/>
<path opacity="0.8237" d="M119.798 350.41C121.306 350.41 122.529 349.188 122.529 347.679C122.529 346.171 121.306 344.948 119.798 344.948C118.29 344.948 117.067 346.171 117.067 347.679C117.067 349.188 118.29 350.41 119.798 350.41Z" fill="#BEA046"/>
<path opacity="0.3841" d="M461.275 567.032C462.783 567.032 464.006 565.81 464.006 564.301C464.006 562.793 462.783 561.57 461.275 561.57C459.767 561.57 458.544 562.793 458.544 564.301C458.544 565.81 459.767 567.032 461.275 567.032Z" fill="#BEA046"/>
<path opacity="0.2036" d="M163.052 442.86C164.56 442.86 165.783 441.638 165.783 440.129C165.783 438.621 164.56 437.398 163.052 437.398C161.544 437.398 160.321 438.621 160.321 440.129C160.321 441.638 161.544 442.86 163.052 442.86Z" fill="#BEA046"/>
<path opacity="0.9547" d="M614.923 496.557C616.431 496.557 617.654 495.334 617.654 493.826C617.654 492.317 616.431 491.095 614.923 491.095C613.415 491.095 612.192 492.317 612.192 493.826C612.192 495.334 613.415 496.557 614.923 496.557Z" fill="#BEA046"/>
<path opacity="0.8611" d="M551.922 116.765C553.43 116.765 554.653 115.542 554.653 114.034C554.653 112.525 553.43 111.303 551.922 111.303C550.414 111.303 549.191 112.525 549.191 114.034C549.191 115.542 550.414 116.765 551.922 116.765Z" fill="#BEA046"/>
<path opacity="0.5583" d="M280.925 119.853C282.433 119.853 283.656 118.63 283.656 117.122C283.656 115.613 282.433 114.391 280.925 114.391C279.417 114.391 278.194 115.613 278.194 117.122C278.194 118.63 279.417 119.853 280.925 119.853Z" fill="#BEA046"/>
<path opacity="0.1229" d="M160.622 485.803C162.13 485.803 163.353 484.58 163.353 483.072C163.353 481.564 162.13 480.341 160.622 480.341C159.114 480.341 157.891 481.564 157.891 483.072C157.891 484.58 159.114 485.803 160.622 485.803Z" fill="#BEA046"/>
<path opacity="0.2394" d="M83.766 248.705C85.2743 248.705 86.497 247.482 86.497 245.974C86.497 244.466 85.2743 243.243 83.766 243.243C82.2577 243.243 81.035 244.466 81.035 245.974C81.035 247.482 82.2577 248.705 83.766 248.705Z" fill="#BEA046"/>
<path opacity="0.4959" d="M117.708 389.612C119.216 389.612 120.439 388.39 120.439 386.881C120.439 385.373 119.216 384.15 117.708 384.15C116.2 384.15 114.977 385.373 114.977 386.881C114.977 388.39 116.2 389.612 117.708 389.612Z" fill="#BEA046"/>
<path opacity="0.9667" d="M606.093 116.732C607.601 116.732 608.824 115.509 608.824 114.001C608.824 112.492 607.601 111.27 606.093 111.27C604.585 111.27 603.362 112.492 603.362 114.001C603.362 115.509 604.585 116.732 606.093 116.732Z" fill="#BEA046"/>
<path opacity="0.5836" d="M608.151 345.412C609.659 345.412 610.882 344.189 610.882 342.681C610.882 341.173 609.659 339.95 608.151 339.95C606.643 339.95 605.42 341.173 605.42 342.681C605.42 344.189 606.643 345.412 608.151 345.412Z" fill="#BEA046"/>
<path opacity="0.3478" d="M458.771 157.7C460.279 157.7 461.502 156.478 461.502 154.969C461.502 153.461 460.279 152.238 458.771 152.238C457.263 152.238 456.04 153.461 456.04 154.969C456.04 156.478 457.263 157.7 458.771 157.7Z" fill="#BEA046"/>
<path opacity="0.4655" d="M640.709 473.676C642.217 473.676 643.44 472.453 643.44 470.945C643.44 469.437 642.217 468.214 640.709 468.214C639.201 468.214 637.978 469.437 637.978 470.945C637.978 472.453 639.201 473.676 640.709 473.676Z" fill="#BEA046"/>
<path opacity="0.8838" d="M661.698 160.278C663.206 160.278 664.429 159.056 664.429 157.547C664.429 156.039 663.206 154.816 661.698 154.816C660.19 154.816 658.967 156.039 658.967 157.547C658.967 159.056 660.19 160.278 661.698 160.278Z" fill="#BEA046"/>
<path opacity="0.3965" d="M158.595 188.519C160.103 188.519 161.326 187.296 161.326 185.788C161.326 184.279 160.103 183.057 158.595 183.057C157.087 183.057 155.864 184.279 155.864 185.788C155.864 187.296 157.087 188.519 158.595 188.519Z" fill="#BEA046"/>
<path opacity="0.5448" d="M663.027 550.646C664.535 550.646 665.758 549.423 665.758 547.915C665.758 546.406 664.535 545.184 663.027 545.184C661.519 545.184 660.296 546.406 660.296 547.915C660.296 549.423 661.519 550.646 663.027 550.646Z" fill="#BEA046"/>
<path opacity="0.851" d="M535.49 151.037C536.998 151.037 538.221 149.814 538.221 148.306C538.221 146.798 536.998 145.575 535.49 145.575C533.982 145.575 532.759 146.798 532.759 148.306C532.759 149.814 533.982 151.037 535.49 151.037Z" fill="#BEA046"/>
<path opacity="0.4346" d="M150.876 398.666C152.384 398.666 153.607 397.443 153.607 395.935C153.607 394.427 152.384 393.204 150.876 393.204C149.368 393.204 148.145 394.427 148.145 395.935C148.145 397.443 149.368 398.666 150.876 398.666Z" fill="#BEA046"/>
<path opacity="0.3057" d="M497.773 168.264C499.281 168.264 500.504 167.041 500.504 165.533C500.504 164.024 499.281 162.802 497.773 162.802C496.265 162.802 495.042 164.024 495.042 165.533C495.042 167.041 496.265 168.264 497.773 168.264Z" fill="#BEA046"/>
<path opacity="0.363" d="M697.788 483.834C699.296 483.834 700.519 482.611 700.519 481.103C700.519 479.595 699.296 478.372 697.788 478.372C696.28 478.372 695.057 479.595 695.057 481.103C695.057 482.611 696.28 483.834 697.788 483.834Z" fill="#BEA046"/>
<path opacity="0.8485" d="M551.731 510.462C553.239 510.462 554.462 509.239 554.462 507.731C554.462 506.223 553.239 505 551.731 505C550.223 505 549 506.223 549 507.731C549 509.239 550.223 510.462 551.731 510.462Z" fill="#BEA046"/>
<path opacity="0.4662" d="M699.936 524.413C701.444 524.413 702.667 523.19 702.667 521.682C702.667 520.174 701.444 518.951 699.936 518.951C698.428 518.951 697.205 520.174 697.205 521.682C697.205 523.19 698.428 524.413 699.936 524.413Z" fill="#BEA046"/>
<path opacity="0.5923" d="M629.76 186.479C631.268 186.479 632.491 185.256 632.491 183.748C632.491 182.239 631.268 181.017 629.76 181.017C628.252 181.017 627.029 182.239 627.029 183.748C627.029 185.256 628.252 186.479 629.76 186.479Z" fill="#BEA046"/>
<path opacity="0.2426" d="M79.864 502.499C81.3723 502.499 82.595 501.276 82.595 499.768C82.595 498.26 81.3723 497.037 79.864 497.037C78.3557 497.037 77.133 498.26 77.133 499.768C77.133 501.276 78.3557 502.499 79.864 502.499Z" fill="#BEA046"/>
<path opacity="0.3687" d="M433.175 536C434.683 536 435.906 534.777 435.906 533.269C435.906 531.761 434.683 530.538 433.175 530.538C431.667 530.538 430.444 531.761 430.444 533.269C430.444 534.777 431.667 536 433.175 536Z" fill="#BEA046"/>
<path opacity="0.7589" d="M262.285 596.675C263.793 596.675 265.016 595.452 265.016 593.944C265.016 592.436 263.793 591.213 262.285 591.213C260.777 591.213 259.554 592.436 259.554 593.944C259.554 595.452 260.777 596.675 262.285 596.675Z" fill="#BEA046"/>
<path opacity="0.4563" d="M595.3 78.0792C596.808 78.0792 598.031 76.8565 598.031 75.3482C598.031 73.8399 596.808 72.6172 595.3 72.6172C593.792 72.6172 592.569 73.8399 592.569 75.3482C592.569 76.8565 593.792 78.0792 595.3 78.0792Z" fill="#BEA046"/>
<path d="M731.664 29.3352C536.208 29.3342 269.876 29.3221 153.095 29.3181L97.1415 29.3151C84.9213 29.3151 77.5754 25.2531 75.3044 17.2405C73.2503 9.98792 77.221 2.63292 84.342 0.496497C87.3097 -0.396022 90.4441 -0.0777673 93.1728 1.39102C95.8996 2.85881 97.8925 5.30244 98.783 8.27014C99.553 10.8343 99.2779 13.5449 98.0079 15.9022C96.7379 18.2605 94.6266 19.9823 92.0625 20.7523C89.8357 21.42 87.4814 21.182 85.4323 20.0797C83.3833 18.9774 81.8874 17.1431 81.2187 14.9163C80.014 10.9005 82.3 6.65176 86.3148 5.44701C87.3067 5.14783 88.3438 5.71105 88.64 6.69694C88.9361 7.68383 88.3769 8.72493 87.388 9.0211C85.344 9.63552 84.1804 11.798 84.7938 13.8431C85.1753 15.1151 86.0307 16.1623 87.2003 16.7927C88.3719 17.4232 89.7162 17.5608 90.9882 17.1773C92.5976 16.6933 93.9238 15.6121 94.7209 14.1323C95.5171 12.6524 95.6898 10.9517 95.2069 9.34337C94.6025 7.33044 93.2522 5.6729 91.4019 4.67798C89.5536 3.68507 87.4282 3.46821 85.4153 4.07259C80.267 5.61769 77.4037 10.9547 78.8966 16.2245C80.6806 22.5213 86.6481 25.5824 97.1415 25.5824L153.094 25.5844C270.62 25.5894 539.46 25.6005 735.398 25.6015C735.399 221.539 735.41 381.951 735.415 499.477L735.417 555.429C735.417 565.922 738.478 571.89 744.775 573.674C750.044 575.166 755.382 572.304 756.926 567.155C757.53 565.142 757.314 563.017 756.32 561.169C755.324 559.319 753.669 557.968 751.655 557.365C750.046 556.882 748.346 557.055 746.866 557.851C745.386 558.648 744.305 559.973 743.821 561.582C743.437 562.853 743.575 564.199 744.205 565.37C744.836 566.54 745.883 567.395 747.155 567.778C749.2 568.39 751.362 567.228 751.977 565.184C752.273 564.196 753.314 563.635 754.301 563.932C755.288 564.228 755.85 565.265 755.552 566.257C754.346 570.272 750.098 572.558 746.082 571.354C743.855 570.685 742.021 569.188 740.918 567.14C739.816 565.092 739.578 562.738 740.246 560.51C741.016 557.946 742.737 555.834 745.096 554.565C747.454 553.295 750.165 553.02 752.728 553.79C755.696 554.68 758.138 556.673 759.607 559.4C761.076 562.128 761.394 565.263 760.502 568.23C758.365 575.352 751.01 579.321 743.758 577.267C735.745 574.997 731.683 567.65 731.683 555.43L731.681 499.478C731.677 382.695 731.665 224.79 731.664 29.3352Z" fill="#BEA046"/>
<path d="M29.3332 623.238C224.788 623.239 491.121 623.25 607.902 623.255L663.855 623.257C676.075 623.257 683.422 627.319 685.692 635.331C687.746 642.583 683.775 649.94 676.654 652.075C673.686 652.968 670.552 652.649 667.823 651.18C665.096 649.713 663.104 647.269 662.213 644.301C661.443 641.738 661.718 639.027 662.989 636.669C664.258 634.311 666.369 632.588 668.935 631.819C671.161 631.151 673.516 631.389 675.564 632.492C677.613 633.594 679.11 635.428 679.777 637.656C680.982 641.672 678.696 645.92 674.681 647.125C673.689 647.425 672.652 646.861 672.356 645.875C672.059 644.889 672.619 643.848 673.607 643.55C675.651 642.937 676.815 640.773 676.201 638.729C675.82 637.456 674.964 636.41 673.795 635.78C672.623 635.149 671.279 635.012 670.007 635.395C668.396 635.879 667.071 636.959 666.274 638.44C665.477 639.92 665.305 641.621 665.788 643.229C666.393 645.243 667.743 646.9 669.592 647.895C671.44 648.888 673.566 649.104 675.579 648.501C680.727 646.956 683.59 641.619 682.097 636.349C680.313 630.052 674.346 626.991 663.853 626.991L607.9 626.989C490.375 626.984 221.534 626.973 25.5974 626.972C25.5964 431.036 25.5854 270.622 25.5804 153.097V97.1433C25.5804 86.6499 22.5193 80.6824 16.2225 78.8984C10.9527 77.4055 5.61467 80.2688 4.07059 85.4171C3.46721 87.43 3.68306 89.5554 4.67698 91.4027C5.6729 93.252 7.32843 94.6033 9.34237 95.2067C10.9507 95.6896 12.6514 95.5169 14.1312 94.7208C15.6111 93.9236 16.6923 92.5984 17.1763 90.988C17.5598 89.717 17.4222 88.3727 16.7917 87.2011C16.1612 86.0305 15.1141 85.1761 13.8421 84.7936C11.797 84.1802 9.63452 85.3438 9.0211 87.3878C8.72393 88.3757 7.68383 88.936 6.69694 88.6388C5.71005 88.3436 5.14683 87.3055 5.44601 86.3146C6.65176 82.2988 10.9005 80.0128 14.9163 81.2175C17.1431 81.8862 18.9774 83.3831 20.0797 85.4311C21.182 87.4792 21.42 89.8335 20.7523 92.0603C19.9823 94.6254 18.2605 96.7367 15.9022 98.0057C13.5439 99.2757 10.8332 99.5508 8.27014 98.7818C5.30244 97.8913 2.85881 95.8984 1.39102 93.1717C-0.0777673 90.4429 -0.396022 87.3085 0.496497 84.3408C2.63292 77.2188 9.98892 73.2491 17.2405 75.3032C25.2531 77.5732 29.3141 84.9201 29.3141 97.1403L29.3161 153.093C29.3211 269.877 29.3322 427.784 29.3332 623.238Z" fill="#DFDFDF"/>
<path d="M712.421 48.5771C452.783 48.568 100.816 48.56 97.1565 48.5871C86.6481 48.5871 80.6806 51.6482 78.8965 57.945C77.4047 63.2148 80.267 68.5528 85.4152 70.0969C87.4262 70.7013 89.5536 70.4854 91.4028 69.4905C93.2521 68.4946 94.6025 66.839 95.2068 64.8251C95.6897 63.2158 95.5171 61.5151 94.7209 60.0352C93.9238 58.5554 92.5976 57.4741 90.9892 56.9902C89.7182 56.6107 88.3729 56.7453 87.2013 57.3747C86.0307 58.0052 85.1753 59.0524 84.7938 60.3244C84.1804 62.3694 85.344 64.532 87.388 65.1454C88.3769 65.4425 88.9361 66.4826 88.64 67.4705C88.3438 68.4574 87.3057 69.0186 86.3148 68.7205C82.301 67.5177 80.014 63.27 81.2187 59.2541C81.8883 57.0254 83.3842 55.1921 85.4323 54.0898C87.4814 52.9874 89.8347 52.7465 92.0635 53.4171C94.6276 54.1872 96.7389 55.909 98.0089 58.2663C99.2789 60.6256 99.554 63.3362 98.7829 65.9003C97.8934 68.868 95.9006 71.3107 93.1738 72.7795C90.4451 74.2483 87.3097 74.5655 84.343 73.674C77.2219 71.5376 73.2523 64.1826 75.3054 56.93C77.5753 48.9174 84.9223 44.8564 97.1425 44.8564C100.82 44.8283 456.166 44.8363 716.156 44.8453C716.166 304.835 716.173 551.754 716.146 555.431C716.146 567.651 712.084 574.997 704.071 577.268C696.818 579.322 689.464 575.353 687.326 568.231C686.435 565.264 686.752 562.129 688.221 559.401C689.689 556.673 692.132 554.681 695.1 553.791C697.664 553.02 700.375 553.295 702.734 554.565C705.091 555.835 706.813 557.946 707.583 560.51C708.255 562.739 708.014 565.092 706.91 567.141C705.808 569.19 703.975 570.686 701.746 571.356C697.73 572.559 693.482 570.273 692.277 566.258C691.979 565.267 692.541 564.229 693.528 563.933C694.514 563.636 695.555 564.197 695.852 565.185C696.466 567.229 698.629 568.392 700.673 567.78C701.945 567.397 702.992 566.542 703.622 565.371C704.252 564.201 704.386 562.854 704.007 561.583C703.524 559.974 702.443 558.648 700.962 557.852C699.482 557.055 697.781 556.882 696.172 557.366C694.159 557.969 692.502 559.32 691.507 561.169C690.512 563.018 690.296 565.145 690.9 567.156C692.445 572.304 697.782 575.167 703.052 573.675C709.349 571.891 712.41 565.924 712.41 555.416C712.439 551.756 712.43 308.217 712.421 48.5771Z" fill="#DFDFDF"/>
<path d="M48.576 603.995C308.216 604.005 660.181 604.012 663.84 603.985C674.348 603.985 680.316 600.924 682.101 594.627C683.592 589.358 680.729 584.021 675.582 582.475C673.571 581.87 671.443 582.086 669.594 583.081C667.745 584.077 666.395 585.733 665.79 587.746C665.306 589.355 665.479 591.055 666.276 592.535C667.073 594.016 668.398 595.096 670.008 595.58C671.279 595.96 672.624 595.825 673.796 595.196C674.966 594.565 675.822 593.518 676.203 592.246C676.817 590.201 675.652 588.038 673.608 587.425C672.62 587.128 672.06 586.088 672.357 585.1C672.653 584.113 673.69 583.552 674.682 583.85C678.697 585.056 680.983 589.303 679.779 593.319C679.11 595.547 677.614 597.381 675.565 598.484C673.517 599.586 671.162 599.828 668.935 599.156C666.37 598.386 664.258 596.664 662.989 594.306C661.719 591.948 661.444 589.237 662.215 586.672C663.106 583.705 665.098 581.262 667.825 579.794C670.554 578.325 673.688 578.008 676.656 578.899C683.777 581.036 687.747 588.391 685.694 595.643C683.424 603.655 676.077 607.717 663.857 607.717C660.179 607.745 304.833 607.737 44.8443 607.728C44.8343 347.738 44.8273 100.82 44.8544 97.1422C44.8544 84.922 48.9164 77.575 56.929 75.3051C64.1826 73.251 71.5366 77.2216 73.673 84.3427C74.5655 87.3104 74.2472 90.4448 72.7784 93.1735C71.3107 95.9003 68.867 97.8931 65.9003 98.7836C63.3362 99.5537 60.6255 99.2796 58.2662 98.0096C55.9089 96.7396 54.1872 94.6283 53.4161 92.0641C52.7445 89.8364 52.9864 87.4821 54.0888 85.434C55.1911 83.3849 57.0243 81.889 59.2531 81.2194C63.269 80.0157 67.5167 82.3017 68.7225 86.3165C69.0196 87.3074 68.4584 88.3455 67.4715 88.6406C66.4846 88.9378 65.4435 88.3776 65.1474 87.3897C64.5329 85.3457 62.3704 84.1811 60.3254 84.7945C59.0543 85.177 58.0062 86.0314 57.3757 87.203C56.7462 88.3736 56.6117 89.7189 56.9912 90.9899C57.4751 92.5993 58.5564 93.9255 60.0362 94.7216C61.516 95.5188 63.2167 95.6914 64.8261 95.2075C66.839 94.6042 68.4956 93.2528 69.4915 91.4035C70.4864 89.5543 70.7023 87.4269 70.0969 85.4159C68.5518 80.2676 63.2147 77.4044 57.945 78.8972C51.6481 80.6803 48.5871 86.6488 48.5871 97.1562C48.559 100.818 48.567 344.357 48.576 603.995Z" fill="#BEA046"/>
</svg>
