<svg width="761" height="291" viewBox="0 0 761 291" fill="none" xmlns="http://www.w3.org/2000/svg">
<path opacity="0.4" d="M760.509 238.667C758.766 225.381 751.747 212.927 741.495 204.285C734.652 198.495 726.447 194.38 717.749 192.177V71.2838H312.855C310.235 62.612 306.002 54.4396 300.423 47.2059C296.816 42.5664 292.543 38.4802 287.85 34.9348C282.649 29.9493 276.886 25.5337 270.665 21.8495C258.596 14.7339 244.847 10.5358 230.873 9.31738C216.874 7.99537 202.715 9.75459 189.212 13.4305C182.425 15.2022 175.857 17.6804 169.373 20.3099C162.955 23.0969 156.624 26.0994 150.544 29.5577C138.321 36.3605 126.917 44.5494 116.009 53.1756C105.111 61.692 93.5998 69.4686 81.2819 75.6953C68.9951 81.7997 55.5205 86.3376 41.7141 85.8963C38.2895 85.7077 34.867 85.3057 31.5377 84.4313C28.2209 83.5424 24.9911 82.2991 21.9645 80.6518C20.5237 79.8706 19.1369 78.992 17.8039 78.0388C10.7722 70.6083 5.94625 61.1097 4.46404 50.9647C2.44699 38.791 6.14319 25.8196 14.541 16.6713C18.6891 12.0919 23.8551 8.4243 29.5808 6.04344C35.2816 3.66052 41.6375 2.58302 47.757 3.08655C49.3056 3.13006 50.8044 3.53827 52.328 3.7807C53.804 4.22413 55.3235 4.54738 56.7373 5.18352C59.6375 6.2548 62.3386 7.83375 64.7972 9.70072C69.7518 13.4201 73.5703 18.6004 75.7863 24.3878C76.885 27.295 77.5194 30.3534 77.8262 33.4471C78.0625 36.5262 77.7889 39.6302 76.9825 42.6079C75.4111 48.5797 71.6092 53.9402 66.495 57.4442C61.4348 60.9502 55.0147 62.7695 48.8951 62.0131C42.7755 61.1967 37.0892 57.5602 33.7766 52.3115C32.1285 49.6882 31.063 46.7044 30.6774 43.6253C30.2255 40.5544 30.6504 37.4131 31.8715 34.5722C34.2762 28.8574 40.0246 24.7401 46.2561 24.3236C46.6023 24.2966 46.8718 23.9941 46.847 23.646C46.8242 23.2958 46.5194 23.0327 46.1691 23.0554C39.4732 23.4305 33.1982 27.7985 30.5198 33.9817C29.1579 37.0463 28.6603 40.5026 29.1123 43.8159C29.4916 47.125 30.6048 50.3534 32.3545 53.2025C35.8662 58.9029 41.9733 62.9187 48.6339 63.878C55.3298 64.7628 62.1376 62.8876 67.6725 59.164C73.2241 55.4425 77.4033 49.6965 79.1819 43.2233C80.092 39.9991 80.4278 36.6112 80.2039 33.2689C79.9158 29.9535 79.2649 26.663 78.1164 23.5237C75.8008 17.2722 71.746 11.6444 66.437 7.56852C63.8001 5.52127 60.8917 3.78692 57.7614 2.58717C56.2315 1.89094 54.5918 1.5076 52.9914 1.00822C51.3433 0.713983 49.7119 0.260192 48.0327 0.181451C34.6286 -1.10118 21.0669 4.49972 11.9787 14.3339C2.74551 24.077 -1.52492 38.2606 0.490061 51.5262C2.23347 64.8105 9.25272 77.2659 19.5038 85.9087C28.0239 93.1196 38.6461 97.757 49.7243 99.2738V219.693H448.385C451.024 228.072 455.168 235.971 460.578 242.985C464.185 247.625 468.458 251.713 473.151 255.256C478.352 260.242 484.115 264.657 490.337 268.342C502.406 275.457 516.154 279.655 530.13 280.874C544.129 282.196 558.288 280.437 571.792 276.759C578.579 274.987 585.146 272.509 591.631 269.879C598.049 267.092 604.38 264.09 610.46 260.631C622.682 253.829 634.086 245.64 644.996 237.013C655.894 228.497 667.406 220.72 679.722 214.494C692.01 208.389 705.483 203.851 719.289 204.293C722.712 204.481 726.136 204.883 729.466 205.758C732.783 206.647 736.012 207.89 739.039 209.537C740.478 210.319 741.864 211.197 743.199 212.15C750.231 219.581 755.057 229.079 756.539 239.224C758.556 251.398 754.86 264.369 746.462 273.518C742.314 278.097 737.148 281.765 731.423 284.146C725.722 286.529 719.366 287.606 713.248 287.103C711.702 287.059 710.201 286.651 708.678 286.41C707.202 285.967 705.682 285.644 704.268 285.008C701.37 283.934 698.669 282.357 696.208 280.49C691.252 276.773 687.435 271.591 685.219 265.803C684.12 262.896 683.484 259.838 683.179 256.744C682.943 253.667 683.219 250.561 684.023 247.583C685.594 241.612 689.396 236.251 694.51 232.747C699.569 229.241 705.993 227.422 712.11 228.178C718.23 228.994 723.916 232.631 727.227 237.88C728.875 240.503 729.94 243.487 730.326 246.566C730.78 249.637 730.353 252.778 729.132 255.619C726.727 261.336 720.979 265.451 714.747 265.868C714.401 265.895 714.132 266.197 714.156 266.545C714.181 266.895 714.484 267.159 714.834 267.136C721.532 266.761 727.805 262.393 730.484 256.21C731.846 253.145 732.343 249.689 731.891 246.375C731.512 243.066 730.399 239.838 728.649 236.989C725.137 231.288 719.03 227.273 712.367 226.313C705.672 225.428 698.864 227.304 693.329 231.027C687.777 234.749 683.598 240.497 681.819 246.968C680.909 250.192 680.574 253.58 680.797 256.922C681.086 260.238 681.736 263.528 682.885 266.667C685.2 272.919 689.255 278.547 694.566 282.623C697.203 284.67 700.112 286.404 703.242 287.604C704.772 288.3 706.412 288.684 708.012 289.183C709.658 289.477 711.292 289.931 712.971 290.01C726.375 291.288 739.937 285.689 749.025 275.853C758.254 266.116 762.526 251.933 760.509 238.667Z" fill="#BEA046"/>
<path d="M716.65 266.367L716.65 266.368C716.65 266.368 716.65 266.367 716.65 266.367ZM716.65 266.367C716.665 266.568 716.648 266.761 716.604 266.943L716.65 266.367ZM448.385 217.193H52.2243V99.2738V97.0928L50.0634 96.7969C39.4418 95.3426 29.2657 90.8954 21.1189 84.0004L21.1153 83.9974C20.0934 83.1358 19.1053 82.2347 18.1532 81.2972C19.0031 81.8441 19.8751 82.3626 20.7693 82.8476C23.9874 84.5991 27.4039 85.9116 30.8905 86.8461L30.9026 86.8493C34.4518 87.7815 38.0555 88.1986 41.5767 88.3925L41.6055 88.3941L41.6343 88.395C56.0255 88.855 69.9308 84.1264 82.3942 77.9342L82.402 77.9303L82.4097 77.9264C94.9127 71.6062 106.563 63.7304 117.549 55.1455L117.554 55.141L117.56 55.1366C128.412 46.5545 139.699 38.4546 151.759 31.7422L151.77 31.7365L151.78 31.7308C157.746 28.3371 163.98 25.378 170.341 22.6151C176.788 20.0013 183.226 17.5768 189.843 15.8495L189.856 15.8462L189.868 15.8427C203.147 12.228 216.999 10.5183 230.638 11.8063L230.647 11.8071L230.656 11.8079C244.282 12.9959 257.665 17.0882 269.393 24.0015C275.442 27.5844 281.053 31.8822 286.12 36.7396L286.226 36.8412L286.343 36.9297C290.88 40.3571 294.988 44.2901 298.444 48.7335C303.84 55.7312 307.931 63.6319 310.462 72.0069L310.999 73.7838H312.855H715.249V192.177V194.123L717.135 194.601C725.483 196.715 733.342 200.661 739.881 206.193L739.884 206.196C740.9 207.052 741.882 207.948 742.829 208.879C741.985 208.337 741.119 207.822 740.232 207.34C737.015 205.589 733.599 204.277 730.113 203.343L730.101 203.34C726.552 202.408 722.946 201.991 719.427 201.797L719.398 201.795L719.369 201.794C704.978 201.334 691.075 206.063 678.609 212.255L678.601 212.259L678.594 212.263C666.093 218.583 654.443 226.459 643.457 235.044L643.451 235.048L643.446 235.052C632.591 243.635 621.304 251.734 609.244 258.447L609.234 258.453L609.224 258.458C603.257 261.852 597.024 264.811 590.663 267.574C584.216 270.188 577.778 272.612 571.16 274.34L571.148 274.343L571.135 274.346C557.856 277.963 544.004 279.673 530.365 278.385L530.356 278.384L530.347 278.383C516.72 277.195 503.337 273.103 491.611 266.191C485.56 262.607 479.949 258.309 474.881 253.452L474.775 253.35L474.658 253.261C470.12 249.836 466.012 245.9 462.555 241.455C457.323 234.671 453.318 227.035 450.769 218.942L450.219 217.193H448.385Z" stroke="#BEA046" stroke-width="5"/>
</svg>
