<svg width="271" height="220" viewBox="0 0 271 220" fill="none" xmlns="http://www.w3.org/2000/svg">
<path fill-rule="evenodd" clip-rule="evenodd" d="M142.35 48.1507C107.717 -47.9634 -69.8996 9.15239 63.0759 137.018C109.1 181.374 132.086 207.355 142.247 219.177V219.434C142.247 219.382 142.298 219.357 142.35 219.305C142.35 219.356 142.401 219.382 142.426 219.434V219.177C152.589 207.355 175.575 181.374 221.598 137.018C354.55 9.15239 176.932 -47.9634 142.35 48.1507Z" fill="#AF9136"/>
<path fill-rule="evenodd" clip-rule="evenodd" d="M128.476 48.1507C163.084 -47.9634 340.727 9.15239 207.751 137.018C161.728 181.374 138.741 207.355 128.579 219.177V219.434C128.579 219.382 128.528 219.357 128.477 219.305C128.477 219.356 128.401 219.382 128.375 219.434V219.177C118.238 207.355 95.2519 181.374 49.2285 137.018C-83.7474 9.15239 93.8949 -47.9634 128.476 48.1507Z" fill="#BEA046"/>
<path fill-rule="evenodd" clip-rule="evenodd" d="M128.476 59.9207C154.892 -13.4362 290.506 30.1614 189.014 127.766C153.87 161.662 136.309 181.476 128.579 190.522V190.728C128.554 190.702 128.503 190.651 128.477 190.625C128.477 190.651 128.426 190.702 128.4 190.728V190.522C120.645 181.476 103.136 161.662 67.9659 127.766C-33.5526 30.1614 102.061 -13.4362 128.476 59.9207Z" fill="#F5F6F6"/>
</svg>
