<svg width="107" height="91" viewBox="0 0 107 91" fill="none" xmlns="http://www.w3.org/2000/svg">
<path d="M34.6422 57.278C27.1802 47.5206 8.15727 45.2415 0 54.0174C7.31648 65.2023 26.0887 71.545 38.2802 65.9809C31.1981 63.499 24.6174 61.6011 18.6833 57.205C20.8792 56.6777 30.3978 54.7961 34.6422 57.278Z" fill="#1E1E1E"/>
<path d="M37.4397 40.0732C39.4454 24.3939 30.7892 19.4273 17.5288 15.1357C7.00486 25.736 22.7664 42.9583 34.013 45.0639C32.9655 38.9159 28.3125 32.5349 23.3916 28.5246C29.0677 28.8863 35.0621 32.9355 36.7187 37.9583L37.4397 40.0732Z" fill="#1E1E1E"/>
<path d="M45.4886 28.3597C53.7806 19.3752 54.7064 11.7114 47.4127 1.91162C35.2082 5.81687 38.839 20.647 43.4117 27.7238C43.4197 23.4027 43.3151 18.5436 44.9977 14.5731C48.2259 18.2256 47.4127 24.3811 45.4886 28.3597Z" fill="#1E1E1E"/>
<path d="M64.7976 21.2473C72.1363 17.6539 76.5021 8.14639 72.8449 0.519531C62.0745 5.53742 57.0719 7.84225 59.0214 21.2473C59.5289 16.9177 62.727 13.0522 66.4325 10.7954C66.4245 10.8514 66.3521 10.7554 66.4085 10.7234C65.9251 14.5728 65.0551 18.7104 63.1217 22.0956L64.7976 21.2473Z" fill="#1E1E1E"/>
<path d="M70.9906 22.3243C81.122 18.593 94.0304 20.7788 93.9584 33.323C85.7636 35.6101 79.5294 30.7938 74.6238 24.7754C78.097 24.6271 80.7299 25.2828 83.5949 27.3826C81.026 23.9558 77.3047 21.7467 72.9512 22.1135L70.9906 22.3243Z" fill="#1E1E1E"/>
<path d="M47.8329 77.0135C35.6265 73.3559 19.1306 73.5139 13.9201 87.3146C26.4172 92.2993 40.8774 93.4527 49.4162 82.9066C40.7482 86.0981 36.5313 86.0981 27.6936 84.8658C31.652 81.2161 38.3373 76.5838 44.6384 76.8365L47.8329 77.0135Z" fill="#1E1E1E"/>
<path d="M106.556 76.8366C69.8374 85.4763 61.1978 80.4364 48.5726 69.6368C40.3185 60.9972 39.3973 45.9356 48.5726 35.7402C54.3092 29.3711 61.3143 24.3097 69.3885 31.4376C82.585 43.086 61.5776 53.3298 60.6601 42.8922C62.6866 42.5935 63.4924 41.2293 65.878 41.2132C61.801 29.1611 38.9235 43.5885 46.7983 58.8372C53.6917 72.2051 63.3577 76.1166 79.0186 76.8365L106.556 76.8366Z" fill="#1E1E1E"/>
</svg>
