<svg width="31" height="31" viewBox="0 0 31 31" fill="none" xmlns="http://www.w3.org/2000/svg">
<path d="M29.9923 8.17952V8.19957L29.9931 8.2196C30.1351 11.7605 28.0774 15.9584 25.0472 20.0053C22.2499 23.7413 18.7451 27.189 15.8066 29.6266C12.868 27.189 9.36324 23.7413 6.56593 20.0053C3.53577 15.9584 1.47804 11.7605 1.62007 8.2196L1.62088 8.19957V8.17952C1.62088 7.29899 1.7856 6.45811 2.0836 5.68339L2.08774 5.67264L2.09163 5.66179C2.5452 4.39635 3.27444 3.50412 4.08508 2.86571L4.09745 2.85597L4.1095 2.84585C5.32019 1.82906 6.87856 1.2168 8.58306 1.2168C11.3796 1.2168 13.792 2.86647 14.8997 5.25014L15.8066 7.20158L16.7134 5.25014C17.8212 2.86647 20.2336 1.2168 23.0301 1.2168C24.7341 1.2168 26.293 1.82908 27.5036 2.84585L27.5156 2.85588L27.5278 2.86554C28.3383 3.50417 29.068 4.39653 29.5215 5.66179L29.5253 5.67239L29.5294 5.6829C29.8272 6.4583 29.9923 7.29885 29.9923 8.17952Z" stroke="#DFDFDF" stroke-width="2" stroke-miterlimit="10"/>
</svg>
