<svg width="31" height="31" viewBox="0 0 31 31" fill="none" xmlns="http://www.w3.org/2000/svg">
<path d="M30.5149 8.64463C30.5149 7.6742 30.3313 6.7461 29.9991 5.89129C29.4901 4.48571 28.6625 3.48017 27.7425 2.76267C26.3939 1.64203 24.6556 0.96582 22.7573 0.96582C19.6392 0.96582 16.9523 2.78745 15.7194 5.4133C14.4866 2.78745 11.7997 0.96582 8.68157 0.96582C6.78272 0.96582 5.04452 1.64203 3.6964 2.76267C2.77592 3.48017 1.94878 4.48571 1.43978 5.89129C1.10758 6.7461 0.923994 7.6742 0.923994 8.64463C0.618907 16.1727 9.66358 25.7599 15.7194 30.5718C21.7758 25.7599 30.8205 16.1727 30.5149 8.64463Z" fill="#1E1E1E"/>
</svg>
